<svg width="185" height="44" fill="none" xmlns="http://www.w3.org/2000/svg"><g filter="url(#a)"><rect x="6" width="173" height="32" rx="8" fill="#fff"/><rect x="6.5" y=".5" width="172" height="31" rx="7.5" stroke="#639"/></g><path d="M47.354 16.354a.5.5 0 000-.707l-3.182-3.183a.5.5 0 10-.707.708L46.293 16l-2.828 2.828a.5.5 0 10.707.707l3.182-3.181zM24 16.5h23v-1H24v1z" fill="#1C1514"/><path d="M77.183 19.5v-5.126l-2.002 3.817h-.847l-2.002-3.817V19.5h-1.518v-7.81h1.628l2.31 4.444 2.332-4.444h1.617v7.81h-1.518zm9.122-1.331V19.5h-5.423v-7.81h5.324v1.331H82.4v1.881h3.289v1.232h-3.29v2.035h3.906zm4.453-2.629c0-.477.084-.942.253-1.397.176-.462.429-.88.759-1.254a3.54 3.54 0 011.21-.902c.476-.227 1.019-.341 1.628-.341.718 0 1.338.158 1.859.473.528.315.92.726 1.177 1.232l-1.166.803a1.813 1.813 0 00-.517-.693 1.814 1.814 0 00-.682-.363 2.458 2.458 0 00-.715-.11 2.08 2.08 0 00-1.001.231 2.24 2.24 0 00-.704.605c-.191.25-.334.528-.43.836a3.35 3.35 0 00-.131.924c0 .345.055.678.165 1.001.11.315.264.598.462.847.205.242.447.436.726.583.286.14.597.209.935.209.242 0 .487-.04.737-.121.249-.08.48-.209.693-.385.212-.176.377-.403.495-.682l1.243.715a2.312 2.312 0 01-.76.99 3.702 3.702 0 01-1.165.616c-.433.14-.862.209-1.287.209a3.416 3.416 0 01-1.53-.341 4.01 4.01 0 01-1.198-.924 4.674 4.674 0 01-.781-1.298 4.103 4.103 0 01-.275-1.463zm11.8 4.015c-.572 0-1.093-.11-1.562-.33a3.792 3.792 0 01-1.2-.891 4.362 4.362 0 01-.77-1.276 4.044 4.044 0 01-.274-1.463c0-.52.095-1.016.286-1.485.198-.477.466-.898.803-1.265a3.783 3.783 0 011.21-.88c.469-.22.983-.33 1.54-.33a3.44 3.44 0 011.54.341 3.7 3.7 0 011.199.913c.33.381.587.807.77 1.276.183.47.275.953.275 1.452 0 .513-.095 1.008-.286 1.485-.191.47-.458.891-.803 1.265a3.698 3.698 0 01-2.728 1.188zm-2.266-3.96c0 .337.051.664.154.979.103.315.249.598.44.847.198.242.436.436.715.583.286.14.609.209.968.209.367 0 .693-.073.979-.22.286-.154.524-.356.715-.605.191-.257.334-.539.429-.847a3.03 3.03 0 00.154-.946c0-.337-.055-.66-.165-.968a2.562 2.562 0 00-.451-.836 1.98 1.98 0 00-.715-.583 2 2 0 00-.946-.22c-.374 0-.704.077-.99.231a2.118 2.118 0 00-.704.594c-.191.25-.337.528-.44.836a3.192 3.192 0 00-.143.946zm9.315-1.111V19.5h-1.518v-7.81h1.21l4.037 5.148v-5.137h1.518V19.5h-1.265l-3.982-5.016zm13.263-1.463h-2.497V19.5h-1.507v-6.479h-2.497V11.69h6.501v1.331zm2.912-1.331h1.54l2.871 7.81h-1.562l-.726-1.947h-2.728l-.715 1.947H122.9l2.882-7.81zm1.848 4.796l-1.078-3.223-1.122 3.223h2.2zm3.196-.946a3.979 3.979 0 011.012-2.651c.33-.381.733-.682 1.21-.902.477-.227 1.019-.341 1.628-.341.719 0 1.338.158 1.859.473.528.315.92.726 1.177 1.232l-1.166.803a1.81 1.81 0 00-.517-.693 1.817 1.817 0 00-.682-.363 2.456 2.456 0 00-.715-.11 2.08 2.08 0 00-1.001.231 2.24 2.24 0 00-.704.605c-.191.25-.334.528-.429.836a3.35 3.35 0 00-.132.924c0 .345.055.678.165 1.001.11.315.264.598.462.847.205.242.447.436.726.583.286.14.598.209.935.209.242 0 .488-.04.737-.121.249-.08.48-.209.693-.385a1.74 1.74 0 00.495-.682l1.243.715a2.312 2.312 0 01-.759.99 3.702 3.702 0 01-1.166.616c-.433.14-.862.209-1.287.209a3.417 3.417 0 01-1.529-.341 4.005 4.005 0 01-1.199-.924 4.682 4.682 0 01-.781-1.298 4.11 4.11 0 01-.275-1.463zm14.405-2.519h-2.497V19.5h-1.507v-6.479h-2.497V11.69h6.501v1.331zm6.943 5.148V19.5h-5.423v-7.81h5.324v1.331h-3.806v1.881h3.289v1.232h-3.289v2.035h3.905zm1.733 1.331v-7.81h3.454c.359 0 .689.073.99.22.308.147.572.345.792.594.227.25.4.528.517.836.125.308.187.623.187.946 0 .33-.059.649-.176.957a2.3 2.3 0 01-.484.792 2.243 2.243 0 01-.748.528l1.782 2.937h-1.672l-1.606-2.618h-1.518V19.5h-1.518zm1.518-3.949h1.903a.82.82 0 00.506-.165c.147-.117.264-.271.352-.462.088-.19.132-.403.132-.638 0-.25-.051-.466-.154-.649a1.257 1.257 0 00-.396-.451.853.853 0 00-.506-.165h-1.837v2.53z" fill="#000"/><defs><filter id="a" x="0" y="0" width="185" height="44" filterUnits="userSpaceOnUse" color-interpolation-filters="sRGB"><feFlood flood-opacity="0" result="BackgroundImageFix"/><feColorMatrix in="SourceAlpha" values="0 0 0 0 0 0 0 0 0 0 0 0 0 0 0 0 0 0 127 0" result="hardAlpha"/><feOffset dy="6"/><feGaussianBlur stdDeviation="3"/><feComposite in2="hardAlpha" operator="out"/><feColorMatrix values="0 0 0 0 0 0 0 0 0 0 0 0 0 0 0 0 0 0 0.25 0"/><feBlend in2="BackgroundImageFix" result="effect1_dropShadow_4429_587"/><feBlend in="SourceGraphic" in2="effect1_dropShadow_4429_587" result="shape"/></filter></defs></svg>