<svg width="81" height="23" fill="none" xmlns="http://www.w3.org/2000/svg"><rect x=".5" y=".5" width="80" height="22" rx="7.5" fill="#639" stroke="#639"/><path d="M23.467 9.236a1.807 1.807 0 00-.286-.209 2.808 2.808 0 00-.495-.253c-.19-.08-.4-.15-.627-.209a2.473 2.473 0 00-.693-.099c-.41 0-.722.077-.935.231-.205.154-.308.37-.308.649 0 .213.066.381.198.506s.33.231.594.319c.264.088.594.183.99.286.513.125.957.279 1.331.462.381.176.671.41.869.704.205.286.308.667.308 1.144 0 .418-.077.777-.231 1.078a1.934 1.934 0 01-.638.715 2.93 2.93 0 01-.924.407c-.345.08-.711.121-1.1.121-.389 0-.777-.04-1.166-.121a6.407 6.407 0 01-1.122-.341 5.373 5.373 0 01-.99-.55l.671-1.309c.066.066.183.154.352.264.169.103.374.209.616.319.242.103.506.19.792.264.286.073.576.11.869.11.41 0 .722-.07.935-.209a.67.67 0 00.319-.594.66.66 0 00-.253-.55c-.169-.132-.403-.246-.704-.341-.3-.103-.656-.213-1.067-.33a6.829 6.829 0 01-1.232-.462c-.33-.176-.576-.396-.737-.66-.161-.264-.242-.594-.242-.99 0-.535.125-.983.374-1.342a2.352 2.352 0 011.034-.825c.433-.19.913-.286 1.441-.286.367 0 .711.04 1.034.121.33.08.638.187.924.319.286.132.543.275.77.429l-.671 1.232zm5.954 5.819c-.623 0-1.155-.103-1.595-.308a2.856 2.856 0 01-1.056-.869 3.802 3.802 0 01-.583-1.243A5.673 5.673 0 0126 11.172V7.19h1.518v3.982c0 .323.03.638.088.946.066.3.172.572.32.814.146.242.34.433.582.572.242.14.543.209.902.209.367 0 .671-.07.913-.209.25-.147.444-.341.583-.583.147-.242.253-.513.32-.814a4.45 4.45 0 00.098-.935V7.19h1.507v3.982c0 .535-.066 1.038-.198 1.507-.125.47-.326.884-.605 1.243a2.85 2.85 0 01-1.056.836c-.433.198-.95.297-1.55.297zm11.781-2.068c0 .44-.114.81-.34 1.111a2.131 2.131 0 01-.925.671c-.381.154-.8.231-1.254.231H34.91V7.19h4.18c.367 0 .682.099.946.297.271.19.477.44.616.748a2.13 2.13 0 01-.066 2.013c-.19.337-.47.587-.836.748.447.132.8.37 1.056.715.264.345.396.77.396 1.276zm-1.529-.286c0-.198-.04-.374-.12-.528a.914.914 0 00-.33-.374.768.768 0 00-.463-.143h-2.332v2.057h2.255a.944.944 0 00.495-.132c.154-.095.275-.22.363-.374.088-.154.132-.323.132-.506zm-3.245-4.213v1.969h2.024c.169 0 .323-.04.462-.121a.87.87 0 00.33-.341c.088-.147.132-.323.132-.528 0-.198-.04-.37-.12-.517a.818.818 0 00-.738-.462h-2.09zM49.306 15V9.874l-2.002 3.817h-.847l-2.002-3.817V15h-1.518V7.19h1.628l2.31 4.444 2.332-4.444h1.617V15h-1.518zm3.698 0V7.19h1.518V15h-1.518zm9.539-6.479h-2.497V15h-1.507V8.521h-2.497V7.19h6.5v1.331z" fill="#fff"/></svg>