<svg width="225" height="44" fill="none" xmlns="http://www.w3.org/2000/svg"><g filter="url(#a)"><rect x="6" width="213" height="32" rx="8" fill="#fff"/><rect x="6.5" y=".5" width="212" height="31" rx="7.5" stroke="#639"/></g><path d="M47.354 16.354a.5.5 0 000-.707l-3.182-3.183a.5.5 0 10-.707.708L46.293 16l-2.828 2.828a.5.5 0 10.707.707l3.182-3.181zM24 16.5h23v-1H24v1z" fill="#1C1514"/><path d="M76.237 18.169V19.5h-5.423v-7.81h5.324v1.331h-3.806v1.881h3.289v1.232h-3.289v2.035h3.905zM74.07 11.03l-.946-.286.594-1.309h1.375L74.07 11.03zm3.288 4.51c0-.477.084-.942.253-1.397.176-.462.429-.88.759-1.254a3.54 3.54 0 011.21-.902c.477-.227 1.02-.341 1.628-.341.719 0 1.338.158 1.859.473.528.315.92.726 1.177 1.232l-1.166.803a1.813 1.813 0 00-.517-.693 1.814 1.814 0 00-.682-.363 2.458 2.458 0 00-.715-.11 2.08 2.08 0 00-1.001.231 2.24 2.24 0 00-.704.605c-.19.25-.334.528-.43.836a3.35 3.35 0 00-.131.924c0 .345.055.678.165 1.001.11.315.264.598.462.847.205.242.447.436.726.583.286.14.597.209.935.209.242 0 .487-.04.737-.121.25-.08.48-.209.693-.385.213-.176.377-.403.495-.682l1.243.715a2.312 2.312 0 01-.76.99 3.702 3.702 0 01-1.165.616c-.433.14-.862.209-1.287.209a3.416 3.416 0 01-1.53-.341 4.01 4.01 0 01-1.198-.924 4.674 4.674 0 01-.781-1.298 4.103 4.103 0 01-.275-1.463zm11.8 4.015c-.572 0-1.093-.11-1.562-.33a3.795 3.795 0 01-1.199-.891 4.362 4.362 0 01-.77-1.276 4.044 4.044 0 01-.275-1.463c0-.52.096-1.016.286-1.485.198-.477.466-.898.803-1.265a3.779 3.779 0 011.21-.88c.47-.22.983-.33 1.54-.33a3.44 3.44 0 011.54.341c.47.227.87.532 1.2.913.33.381.586.807.77 1.276.183.47.274.953.274 1.452 0 .513-.095 1.008-.286 1.485-.19.47-.458.891-.803 1.265a3.697 3.697 0 01-2.728 1.188zm-2.266-3.96c0 .337.052.664.154.979.103.315.25.598.44.847.198.242.436.436.715.583.286.14.609.209.968.209.367 0 .693-.073.98-.22.285-.154.523-.356.714-.605.19-.257.334-.539.43-.847a3.04 3.04 0 00.153-.946c0-.337-.055-.66-.165-.968a2.554 2.554 0 00-.45-.836 1.977 1.977 0 00-.716-.583 2 2 0 00-.946-.22c-.374 0-.704.077-.99.231a2.119 2.119 0 00-.704.594 2.85 2.85 0 00-.44.836 3.182 3.182 0 00-.143.946zm11.109 3.96c-.624 0-1.155-.103-1.595-.308a2.856 2.856 0 01-1.056-.869 3.802 3.802 0 01-.583-1.243 5.673 5.673 0 01-.187-1.463V11.69h1.518v3.982c0 .323.029.638.088.946.066.3.172.572.319.814.146.242.34.433.583.572.242.14.542.209.902.209.366 0 .67-.07.913-.209.249-.147.443-.341.583-.583.146-.242.253-.513.319-.814a4.45 4.45 0 00.099-.935V11.69h1.507v3.982c0 .535-.066 1.038-.198 1.507-.125.47-.327.884-.605 1.243-.272.352-.624.63-1.056.836-.433.198-.95.297-1.551.297zm11.33-6.534h-2.497V19.5h-1.507v-6.479h-2.497V11.69h6.501v1.331zm6.942 5.148V19.5h-5.423v-7.81h5.324v1.331h-3.806v1.881h3.289v1.232h-3.289v2.035h3.905zm1.734 1.331v-7.81h3.454c.359 0 .689.073.99.22.308.147.572.345.792.594.227.25.399.528.517.836.124.308.187.623.187.946 0 .33-.059.649-.176.957-.11.3-.272.565-.484.792a2.243 2.243 0 01-.748.528l1.782 2.937h-1.672l-1.606-2.618h-1.518V19.5h-1.518zm1.518-3.949h1.903c.19 0 .359-.055.506-.165.146-.117.264-.271.352-.462.088-.19.132-.403.132-.638a1.314 1.314 0 00-.55-1.1.853.853 0 00-.506-.165h-1.837v2.53zm9.54 3.949v-7.81h1.518v6.479h3.982V19.5h-5.5zm9.096-7.81h1.54l2.871 7.81h-1.562l-.726-1.947h-2.728l-.715 1.947h-1.562l2.882-7.81zm1.848 4.796l-1.078-3.223-1.122 3.223h2.2zm13.188 3.014v-5.126l-2.002 3.817h-.847l-2.002-3.817V19.5h-1.518v-7.81h1.628l2.31 4.444 2.332-4.444h1.617v7.81h-1.518zm7.009.055c-.623 0-1.155-.103-1.595-.308a2.867 2.867 0 01-1.056-.869 3.808 3.808 0 01-.583-1.243 5.704 5.704 0 01-.187-1.463V11.69h1.518v3.982c0 .323.03.638.088.946.066.3.173.572.319.814.147.242.341.433.583.572.242.14.543.209.902.209.367 0 .671-.07.913-.209a1.58 1.58 0 00.583-.583c.147-.242.253-.513.319-.814a4.45 4.45 0 00.099-.935V11.69h1.507v3.982c0 .535-.066 1.038-.198 1.507-.124.47-.326.884-.605 1.243-.271.352-.623.63-1.056.836-.432.198-.949.297-1.551.297zm10.142-5.819a1.761 1.761 0 00-.286-.209 2.81 2.81 0 00-.495-.253c-.19-.08-.399-.15-.627-.209a2.47 2.47 0 00-.693-.099c-.41 0-.722.077-.935.231-.205.154-.308.37-.308.649 0 .213.066.381.198.506s.33.231.594.319c.264.088.594.183.99.286a6.53 6.53 0 011.331.462c.382.176.671.41.869.704.206.286.308.667.308 1.144 0 .418-.077.777-.231 1.078a1.928 1.928 0 01-.638.715 2.924 2.924 0 01-.924.407c-.344.08-.711.121-1.1.121-.388 0-.777-.04-1.166-.121a6.443 6.443 0 01-1.122-.341 5.393 5.393 0 01-.99-.55l.671-1.309c.066.066.184.154.352.264.169.103.374.209.616.319.242.103.506.19.792.264.286.073.576.11.869.11.411 0 .723-.07.935-.209a.669.669 0 00.319-.594.658.658 0 00-.253-.55c-.168-.132-.403-.246-.704-.341-.3-.103-.656-.213-1.067-.33a6.837 6.837 0 01-1.232-.462c-.33-.176-.575-.396-.737-.66-.161-.264-.242-.594-.242-.99 0-.535.125-.983.374-1.342a2.357 2.357 0 011.034-.825c.433-.19.913-.286 1.441-.286.367 0 .712.04 1.034.121.33.08.638.187.924.319.286.132.543.275.77.429l-.671 1.232zm2.644 5.764v-7.81h1.518v7.81h-1.518zm7.03.055c-.572 0-1.093-.11-1.562-.33a3.937 3.937 0 01-1.199-.902 4.207 4.207 0 01-.77-1.265 4.05 4.05 0 01-.275-1.463c0-.52.095-1.016.286-1.485.198-.477.466-.898.803-1.265a3.782 3.782 0 011.21-.88c.469-.22.983-.33 1.54-.33a3.44 3.44 0 011.54.341 3.7 3.7 0 011.199.913c.33.381.587.807.77 1.276.183.47.275.953.275 1.452 0 .513-.095 1.008-.286 1.485-.191.47-.458.891-.803 1.265a3.698 3.698 0 01-2.728 1.188zm.011-1.342c.367 0 .693-.073.979-.22.286-.154.524-.356.715-.605.191-.257.334-.539.429-.847a3.03 3.03 0 00.154-.946c0-.337-.055-.664-.165-.979a2.562 2.562 0 00-.451-.836 2.144 2.144 0 00-.715-.583 2 2 0 00-.946-.22c-.374 0-.704.077-.99.231a2.067 2.067 0 00-.704.605c-.191.25-.337.528-.44.836a3.192 3.192 0 00.011 1.925c.103.315.249.594.44.836.198.242.436.436.715.583.286.147.609.22.968.22zm-.154-1.606h1.43l2.574 2.893h-1.43l-2.574-2.893zm8.975 2.948c-.624 0-1.155-.103-1.595-.308a2.851 2.851 0 01-1.056-.869 3.788 3.788 0 01-.583-1.243 5.66 5.66 0 01-.187-1.463V11.69h1.518v3.982c0 .323.029.638.088.946.066.3.172.572.319.814.146.242.341.433.583.572.242.14.542.209.902.209.366 0 .671-.07.913-.209.249-.147.443-.341.583-.583.146-.242.253-.513.319-.814a4.45 4.45 0 00.099-.935V11.69h1.507v3.982c0 .535-.066 1.038-.198 1.507-.125.47-.327.884-.605 1.243a2.86 2.86 0 01-1.056.836c-.433.198-.95.297-1.551.297zm10.912-1.386V19.5h-5.423v-7.81h5.324v1.331h-3.806v1.881h3.289v1.232h-3.289v2.035h3.905z" fill="#000"/><defs><filter id="a" x="0" y="0" width="225" height="44" filterUnits="userSpaceOnUse" color-interpolation-filters="sRGB"><feFlood flood-opacity="0" result="BackgroundImageFix"/><feColorMatrix in="SourceAlpha" values="0 0 0 0 0 0 0 0 0 0 0 0 0 0 0 0 0 0 127 0" result="hardAlpha"/><feOffset dy="6"/><feGaussianBlur stdDeviation="3"/><feComposite in2="hardAlpha" operator="out"/><feColorMatrix values="0 0 0 0 0 0 0 0 0 0 0 0 0 0 0 0 0 0 0.25 0"/><feBlend in2="BackgroundImageFix" result="effect1_dropShadow_3947_535"/><feBlend in="SourceGraphic" in2="effect1_dropShadow_3947_535" result="shape"/></filter></defs></svg>