<svg width="260" height="124" fill="none" xmlns="http://www.w3.org/2000/svg"><path d="M41.323 108.948c-2.579.486-6.077-.45-10.494-2.809-2.788.069-5.227-.09-7.319-.477-2.017-.336-3.75-.889-5.197-1.658-2.045-1.178-3.966-2.9-5.76-5.167-1.795-2.267-2.912-4.564-3.35-6.89-.332-1.762-.22-3.411.337-4.949 1.259-3.689 3.335-5.806 6.228-6.351 2.201-.415 3.84 1.198 4.917 4.837a1498.49 1498.49 0 012.602 8.107c.694 1.953 1.194 3.226 1.501 3.82 1.524 2.904 3.62 5.212 6.287 6.923 2.748.069 5.663-.188 8.745-.768 6.792-1.28 13.059-3.796 18.8-7.548 2.428-1.63 4.728-3.594 6.9-5.892 2.172-2.298 3.868-4.701 5.088-7.21 1.22-2.51 1.635-4.803 1.244-6.878-.557-2.956-3.6-4.76-9.128-5.411l-17.314-.645c-3.539-.115-6.524-.92-8.955-2.416-2.38-1.57-3.8-3.582-4.263-6.035-.71-3.773.937-7.992 4.943-12.654 2.022-2.4 4.513-4.563 7.471-6.488a50.355 50.355 0 019.508-5.015c3.443-1.43 6.8-2.454 10.07-3.07 4.654-.877 8.752-.9 12.295-.07 3.606.819 6.079 2.534 7.418 5.148.307.593.532 1.267.674 2.022.723 3.836-.692 6.87-4.244 9.103-2.149 1.382-4.041 2.227-5.677 2.535-1.006.19-1.828.15-2.465-.122a.652.652 0 01-.277-.436c-.083-.44.75-.857 2.5-1.252 1.056-.264 1.92-.525 2.587-.78.668-.257 1.148-.478 1.439-.663 2.153-1.708 2.998-3.788 2.536-6.241-.237-1.258-.832-2.514-1.785-3.767-2.625-3.218-7.837-4.091-15.636-2.622-2.83.533-5.695 1.399-8.595 2.597a39.582 39.582 0 00-8.088 4.259c-2.49 1.642-4.514 3.52-6.069 5.637-2.701 3.635-3.827 6.648-3.377 9.038.344 1.824 1.533 3.293 3.566 4.408 2.085 1.04 5.016 1.562 8.795 1.566l11.523-.022c4.43.012 8.12.587 11.07 1.724 2.938 1.075 4.715 3.247 5.332 6.517a16.29 16.29 0 01-.642 8.523c-.972 2.788-2.495 5.42-4.569 7.894-2.022 2.4-4.45 4.551-7.283 6.453-6.4 4.397-14.349 7.49-23.846 9.28a69.256 69.256 0 01-3.602.581 62.055 62.055 0 01-3.544.375c.975.337 2.17.633 3.586.887 1.478.242 3.14.418 4.984.526.2.027.318.135.354.324.106.566-.5.974-1.821 1.222zM27.5 104.031c-2.054-1.567-3.742-3.268-5.065-5.103-1.976-2.884-3.742-6.556-5.3-11.017-1.13-3.238-1.98-4.804-2.545-4.698-.503.095-1.124.603-1.862 1.524-.676.908-.782 2.59-.32 5.042.9 4.78 3.38 8.61 7.44 11.493 2.03 1.441 4.581 2.361 7.652 2.759zm58.988 5.589c-2.915-.948-4.75-3.435-5.51-7.46-.817-4.34 1.338-12.431 6.466-24.273 4.884-11.406 8.57-17.767 11.058-19.082.24-.11.454-.183.642-.219a1.81 1.81 0 01.549-.2c1.069-.202 1.823.86 2.261 3.188.357-.524 1.035-1.075 2.033-1.654a23.712 23.712 0 013.201-1.677c1.147-.477 1.998-.8 2.552-.97 2.555-.611 4.812-.385 6.771.678 2.01.99 3.222 2.584 3.637 4.786.96 5.094-1.16 10.606-6.36 16.535-4.717 5.383-9.214 8.477-13.49 9.283-2.83.533-4.81.743-5.938.63-1.593-.156-3.353-1.029-5.28-2.62-.586.697-1.157 1.814-1.714 3.352a35.68 35.68 0 00-1.446 4.766 32.821 32.821 0 00-.886 5.15c-.207 1.666-.21 3.035-.008 4.104.201 1.069.587 1.908 1.158 2.517.52.684 1.027 1.304 1.523 1.862.012.063.05.088.112.077l.018.094c.06.314-.05.596-.33.844-.33.322-.67.419-1.02.289zm12.085-23.476c3.523-.663 7.241-3.22 11.157-7.67 4.603-5.296 6.413-10.554 5.429-15.774-.45-2.39-2.154-3.307-5.11-2.75-2.704.51-5.107 1.581-7.209 3.215-.581.37-1.465 1.383-2.651 3.04a639.169 639.169 0 00-4.5 6.709c-3.996 6.093-5.858 9.863-5.586 11.31.214 1.132 1.423 1.848 3.63 2.149 1.466.18 3.08.103 4.84-.229zm36.715-3.694c-1.51.284-3.12.034-4.831-.75-1.711-.785-2.797-1.883-3.258-3.294-1.541-4.724.425-11.054 5.898-18.989 5.41-7.922 10.789-12.388 16.134-13.395 1.447-.273 2.644-.14 3.592.398.523.357.95.895 1.281 1.614.394.708.654 1.05.78 1.026.251-.047.465-.12.642-.219.165-.161.374-.266.625-.313.755-.142 1.469.016 2.141.476.673.46 1.082.903 1.228 1.331.087.114-1.339 3.607-4.278 10.478-2.962 6.745-4.053 11.151-3.273 13.218.587 1.388 1.416 1.98 2.485 1.78 3.27-.617 8.226-7.152 14.867-19.605.141-.287.306-.448.495-.484.314-.06.513.131.596.572.095.503-.07 1.185-.494 2.046-5.961 12.26-11.079 18.793-15.356 19.599a4.607 4.607 0 01-1.657.02c-2.969-.549-4.744-2.363-5.325-5.445a14.24 14.24 0 01-.227-3.279l-4.782 6.763c-1.429 2.093-2.796 3.653-4.1 4.68-1.242 1.015-2.303 1.606-3.183 1.772zm-1.24-1.916c3.647-.687 7.863-5.617 12.648-14.79l7.404-15.657c-.669-.786-1.569-1.072-2.701-.859-3.837.723-8.445 4.782-13.824 12.179-5.608 7.569-7.68 13.332-6.218 17.29.599 1.45 1.496 2.063 2.691 1.837zm57.76-8.734c-2.705.51-4.69.167-5.957-1.027-1.279-1.257-2.144-3.08-2.594-5.47-.498-2.642-.273-5.94.675-9.896a32.14 32.14 0 011.252-4.242 34.005 34.005 0 011.548-3.71 2.82 2.82 0 01-.643.218l-.566.107c-1.509.285-2.969-.548-4.378-2.496l-5.274 10.372c-2.799 5.542-4.606 8.39-5.424 8.544-.315.06-.496-.037-.543-.289-.059-.314.021-.753.241-1.315.117-.413.4-.987.847-1.723a147.622 147.622 0 005.058-9.452c1.503-3.083 2.671-6.039 3.506-8.866.416-5.745 1.724-8.824 3.925-9.239 1.447-.273 2.295.252 2.544 1.572.225 1.195-.265 2.916-1.47 5.162-1.142 2.234-1.707 3.382-1.695 3.445.248 1.321 1.348 1.798 3.297 1.43 1.133-.213 2.313-.859 3.543-1.937l2.168-1.972c.114-.086.297-.153.549-.2.754-.143 1.474.047 2.159.57.684.521.979 1.052.886 1.59l-4.963 9.435c-3.054 5.916-4.284 10.446-3.692 13.59.534 2.83 2.184 3.985 4.951 3.463 1.887-.355 3.793-1.3 5.718-2.835a37.127 37.127 0 005.539-5.342c1.755-2.09 3.177-4.05 4.264-5.884l1.766-3.068.383-.56c.153-.225.293-.349.419-.372.44-.083.701.095.784.536.024.125.003.357-.064.696-.066.338-.221.725-.465 1.162l-2.379 3.965c-1.138 1.908-2.616 3.912-4.435 6.013a34.472 34.472 0 01-5.745 5.283c-2 1.484-3.911 2.398-5.735 2.742zm42.063-7.243c-2.075.391-4.043.144-5.904-.743-1.797-.899-3.465-2.148-5.004-3.746a47.036 47.036 0 01-3.955-4.921c-.334.649-.669 1.461-1.007 2.437a170.27 170.27 0 01-1.017 3.415l-1.822 6.4c-2.43-.454-3.787-1.436-4.072-2.945-.509-2.704 2.194-10.996 8.11-24.876 5.736-13.455 9.912-21.536 12.527-24.243.279-.248.765-.437 1.457-.567 1.949-.368 3.019-.048 3.209.958.035.189-.275.963-.93 2.324a297.662 297.662 0 01-2.52 4.773 1527.415 1527.415 0 01-3.114 5.765c-1.013 1.884-1.904 3.55-2.673 4.997-.781 1.385-1.205 2.246-1.272 2.584 5.167-4.034 9.448-6.371 12.844-7.011a6.177 6.177 0 013.798.456c1.275.542 2.327 1.288 3.157 2.238.831.951 1.278 1.942 1.342 2.972.172 3.68-1.787 7.11-5.876 10.29-3.281 2.637-6.43 4.24-9.449 4.808-3.271.617-5.612.635-7.024.054-.389.008-.686.162-.89.46-.153.225-.125.545.083.962 3.231 7.467 6.89 10.815 10.978 10.045 2.013-.38 4.467-2.047 7.362-5.002 2.957-2.967 5.902-7.039 8.834-12.215.358-.523.725-.82 1.102-.892.315-.059.508.1.579.478.059.314-.072.827-.394 1.54-1.409 2.544-3.115 5.243-5.117 8.095-1.952 2.777-4.063 5.226-6.333 7.348-2.283 2.058-4.619 3.312-7.009 3.762zm-8.671-15.95c2.83-.533 6.321-2.396 10.474-5.588 4.785-3.637 6.9-6.933 6.343-9.89-.095-.502-.473-.952-1.134-1.349-.661-.396-1.306-.535-1.935-.417-3.396.64-7.109 2.708-11.14 6.202-4.4 3.956-6.796 7.826-7.19 11.613.692-.13 1.584-.234 2.677-.31a81.117 81.117 0 001.905-.26z" fill="#fff"/></svg>