<svg width="194" height="44" fill="none" xmlns="http://www.w3.org/2000/svg"><g filter="url(#a)"><rect x="6" width="182" height="32" rx="8" fill="#fff"/><rect x="6.5" y=".5" width="181" height="31" rx="7.5" stroke="#639"/></g><path d="M47.354 16.354a.5.5 0 000-.707l-3.182-3.183a.5.5 0 10-.707.708L46.293 16l-2.828 2.828a.5.5 0 10.707.707l3.182-3.181zM24 16.5h23v-1H24v1z" fill="#1C1514"/><path d="M77.183 19.5v-5.126l-2.002 3.817h-.847l-2.002-3.817V19.5h-1.518v-7.81h1.628l2.31 4.444 2.332-4.444h1.617v7.81h-1.518zm7.032.055c-.572 0-1.093-.11-1.562-.33a3.794 3.794 0 01-1.2-.891 4.36 4.36 0 01-.77-1.276 4.042 4.042 0 01-.274-1.463c0-.52.095-1.016.286-1.485a4.27 4.27 0 01.803-1.265 3.778 3.778 0 011.21-.88c.469-.22.982-.33 1.54-.33.564 0 1.078.114 1.54.341.469.227.869.532 1.199.913.33.381.586.807.77 1.276.183.47.275.953.275 1.452 0 .513-.096 1.008-.286 1.485-.191.47-.459.891-.803 1.265a3.7 3.7 0 01-1.21.869 3.586 3.586 0 01-1.518.319zm-2.266-3.96c0 .337.05.664.154.979.102.315.249.598.44.847.198.242.436.436.715.583.286.14.608.209.968.209.366 0 .693-.073.979-.22.286-.154.524-.356.715-.605a2.8 2.8 0 00.429-.847c.102-.315.154-.63.154-.946 0-.337-.055-.66-.165-.968a2.556 2.556 0 00-.451-.836 1.977 1.977 0 00-.715-.583 2 2 0 00-.946-.22c-.374 0-.704.077-.99.231a2.117 2.117 0 00-.704.594c-.191.25-.338.528-.44.836a3.18 3.18 0 00-.143.946zm9.315-1.111V19.5h-1.518v-7.81h1.21l4.037 5.148v-5.137h1.518V19.5h-1.265l-3.982-5.016zm12.845 3.685V19.5h-5.423v-7.81h5.324v1.331h-3.806v1.881h3.289v1.232h-3.289v2.035h3.905zm2.613-6.479l1.925 3.674 1.958-3.674h1.639l-2.838 5.082V19.5h-1.507v-2.75l-2.827-5.06h1.65zm15.235 1.331h-2.497V19.5h-1.507v-6.479h-2.497V11.69h6.501v1.331zm1.519 6.479v-7.81h1.518v7.81h-1.518zm10.067 0v-5.126l-2.002 3.817h-.847l-2.002-3.817V19.5h-1.518v-7.81h1.628l2.31 4.444 2.332-4.444h1.617v7.81h-1.518zm9.122-1.331V19.5h-5.423v-7.81h5.324v1.331h-3.806v1.881h3.289v1.232h-3.289v2.035h3.905zm1.733 1.331v-7.81h1.518v6.479h3.982V19.5h-5.5zm6.974 0v-7.81h1.518v7.81h-1.518zm5.215-5.016V19.5h-1.518v-7.81h1.21l4.037 5.148v-5.137h1.518V19.5h-1.265l-3.982-5.016zm12.845 3.685V19.5h-5.423v-7.81h5.324v1.331h-3.806v1.881h3.289v1.232h-3.289v2.035h3.905z" fill="#000"/><defs><filter id="a" x="0" y="0" width="194" height="44" filterUnits="userSpaceOnUse" color-interpolation-filters="sRGB"><feFlood flood-opacity="0" result="BackgroundImageFix"/><feColorMatrix in="SourceAlpha" values="0 0 0 0 0 0 0 0 0 0 0 0 0 0 0 0 0 0 127 0" result="hardAlpha"/><feOffset dy="6"/><feGaussianBlur stdDeviation="3"/><feComposite in2="hardAlpha" operator="out"/><feColorMatrix values="0 0 0 0 0 0 0 0 0 0 0 0 0 0 0 0 0 0 0.25 0"/><feBlend in2="BackgroundImageFix" result="effect1_dropShadow_4032_544"/><feBlend in="SourceGraphic" in2="effect1_dropShadow_4032_544" result="shape"/></filter></defs></svg>