<svg width="108" height="23" fill="none" xmlns="http://www.w3.org/2000/svg"><rect x=".5" y=".5" width="107" height="22" rx="7.5" fill="#639" stroke="#639"/><path d="M23.467 9.236a1.807 1.807 0 00-.286-.209 2.808 2.808 0 00-.495-.253c-.19-.08-.4-.15-.627-.209a2.473 2.473 0 00-.693-.099c-.41 0-.722.077-.935.231-.205.154-.308.37-.308.649 0 .213.066.381.198.506s.33.231.594.319c.264.088.594.183.99.286.513.125.957.279 1.331.462.381.176.671.41.869.704.205.286.308.667.308 1.144 0 .418-.077.777-.231 1.078a1.934 1.934 0 01-.638.715 2.93 2.93 0 01-.924.407c-.345.08-.711.121-1.1.121-.389 0-.777-.04-1.166-.121a6.407 6.407 0 01-1.122-.341 5.373 5.373 0 01-.99-.55l.671-1.309c.066.066.183.154.352.264.169.103.374.209.616.319.242.103.506.19.792.264.286.073.576.11.869.11.41 0 .722-.07.935-.209a.67.67 0 00.319-.594.66.66 0 00-.253-.55c-.169-.132-.403-.246-.704-.341-.3-.103-.656-.213-1.067-.33a6.829 6.829 0 01-1.232-.462c-.33-.176-.576-.396-.737-.66-.161-.264-.242-.594-.242-.99 0-.535.125-.983.374-1.342a2.352 2.352 0 011.034-.825c.433-.19.913-.286 1.441-.286.367 0 .711.04 1.034.121.33.08.638.187.924.319.286.132.543.275.77.429l-.671 1.232zm5.976 5.819c-.572 0-1.093-.11-1.562-.33a3.794 3.794 0 01-1.199-.891 4.36 4.36 0 01-.77-1.276 4.044 4.044 0 01-.275-1.463c0-.52.095-1.016.286-1.485.198-.477.466-.898.803-1.265a3.778 3.778 0 011.21-.88c.47-.22.983-.33 1.54-.33a3.44 3.44 0 011.54.341c.47.227.87.532 1.2.913.33.381.586.807.77 1.276.182.47.274.953.274 1.452 0 .513-.095 1.008-.286 1.485-.19.47-.458.891-.803 1.265a3.698 3.698 0 01-2.728 1.188zm-2.266-3.96c0 .337.051.664.154.979.103.315.25.598.44.847.198.242.436.436.715.583.286.14.609.209.968.209.367 0 .693-.073.98-.22.285-.154.523-.356.714-.605.19-.257.334-.539.43-.847a3.04 3.04 0 00.153-.946c0-.337-.055-.66-.165-.968a2.556 2.556 0 00-.45-.836 1.977 1.977 0 00-.716-.583 2 2 0 00-.946-.22c-.374 0-.704.077-.99.231a2.117 2.117 0 00-.704.594c-.19.25-.337.528-.44.836a3.182 3.182 0 00-.143.946zm11.108 3.96c-.623 0-1.154-.103-1.594-.308a2.858 2.858 0 01-1.056-.869 3.802 3.802 0 01-.584-1.243 5.677 5.677 0 01-.187-1.463V7.19h1.519v3.982c0 .323.029.638.087.946.066.3.173.572.32.814.146.242.34.433.583.572.242.14.542.209.902.209.366 0 .67-.07.913-.209.249-.147.443-.341.582-.583.147-.242.253-.513.32-.814a4.45 4.45 0 00.098-.935V7.19h1.508v3.982c0 .535-.066 1.038-.198 1.507-.125.47-.327.884-.605 1.243a2.85 2.85 0 01-1.056.836c-.433.198-.95.297-1.552.297zM50.145 15V9.874l-2.002 3.817h-.848l-2.002-3.817V15h-1.517V7.19h1.628l2.31 4.444 2.331-4.444h1.617V15h-1.517zm9.121-1.331V15h-5.423V7.19h5.324v1.331H55.36v1.881h3.29v1.232h-3.29v2.035h3.905zm7.575-5.148h-2.497V15h-1.507V8.521h-2.497V7.19h6.5v1.331zm7.36 0h-2.497V15h-1.507V8.521H67.7V7.19H74.2v1.331zM75.72 15V7.19h3.454c.359 0 .689.073.99.22.308.147.572.345.792.594.227.25.4.528.517.836.124.308.187.623.187.946 0 .33-.059.649-.176.957-.11.3-.272.565-.484.792a2.24 2.24 0 01-.748.528L82.034 15h-1.672l-1.606-2.618h-1.518V15H75.72zm1.518-3.949h1.903c.19 0 .359-.055.506-.165a1.25 1.25 0 00.352-.462c.088-.19.132-.403.132-.638 0-.25-.052-.466-.154-.649a1.252 1.252 0 00-.396-.451.852.852 0 00-.506-.165h-1.837v2.53zm11.77 2.618V15h-5.423V7.19h5.324v1.331h-3.806v1.881h3.29v1.232h-3.29v2.035h3.905z" fill="#fff"/></svg>