<svg width="153" height="44" fill="none" xmlns="http://www.w3.org/2000/svg"><g filter="url(#a)"><rect x="6" width="141" height="32" rx="8" fill="#fff"/><rect x="6.5" y=".5" width="140" height="31" rx="7.5" stroke="#639"/></g><path d="M47.354 16.354a.5.5 0 000-.708l-3.182-3.182a.5.5 0 00-.707.707L46.293 16l-2.828 2.828a.5.5 0 10.707.707l3.182-3.181zM24 16.5h23v-1H24v1z" fill="#1C1514"/><path d="M70.814 19.5v-7.81h3.311c.36 0 .69.073.99.22.3.147.561.345.781.594.227.25.403.528.528.836a2.5 2.5 0 01.187.946c0 .44-.103.858-.308 1.254a2.635 2.635 0 01-.847.968c-.36.25-.785.374-1.276.374h-1.848V19.5h-1.518zm1.518-3.949h1.76a.843.843 0 00.495-.154c.147-.103.264-.25.352-.44.088-.198.132-.422.132-.671 0-.271-.051-.502-.154-.693a1.002 1.002 0 00-.385-.429.943.943 0 00-.506-.143h-1.694v2.53zm11.309 2.618V19.5h-5.424v-7.81h5.325v1.331h-3.806v1.881h3.288v1.232h-3.288v2.035h3.904zm3.251-3.685V19.5h-1.518v-7.81h1.21l4.037 5.148v-5.137h1.518V19.5h-1.265l-3.982-5.016zm12.132 0V19.5h-1.518v-7.81h1.21l4.037 5.148v-5.137h1.518V19.5h-1.265l-3.982-5.016zm7.279-.473v-2.464h1.254v2.464h-1.254zm9.537 5.544a3.46 3.46 0 01-1.441-.308 3.855 3.855 0 01-1.188-.847 4.042 4.042 0 01-.792-1.276 4.247 4.247 0 01-.286-1.573c0-.535.095-1.038.286-1.507a3.85 3.85 0 01.803-1.254c.344-.36.748-.642 1.21-.847a3.668 3.668 0 011.507-.308c.733 0 1.36.158 1.881.473.528.308.924.719 1.188 1.232l-1.133.836a2.094 2.094 0 00-.836-.891 2.252 2.252 0 00-1.155-.308c-.33 0-.631.07-.902.209-.272.14-.506.33-.704.572-.198.242-.352.52-.462.836a3.203 3.203 0 00-.154 1.001c0 .374.055.719.165 1.034.117.315.278.59.484.825.212.235.458.422.737.561a2.253 2.253 0 002.057-.11c.366-.205.707-.506 1.023-.902v1.496c-.653.704-1.416 1.056-2.288 1.056zm2.178-2.959h-1.573v-1.111h2.827V19.5h-1.254v-2.904zm6.43 2.959c-.572 0-1.092-.11-1.562-.33a3.802 3.802 0 01-1.199-.891 4.375 4.375 0 01-.77-1.276 4.05 4.05 0 01-.275-1.463c0-.52.096-1.016.286-1.485.198-.477.466-.898.803-1.265a3.782 3.782 0 011.21-.88c.47-.22.983-.33 1.54-.33a3.44 3.44 0 011.54.341c.47.227.869.532 1.199.913.33.381.587.807.77 1.276.184.47.275.953.275 1.452 0 .513-.095 1.008-.286 1.485-.19.47-.458.891-.803 1.265-.337.367-.74.656-1.21.869a3.586 3.586 0 01-1.518.319zm-2.266-3.96c0 .337.052.664.154.979.103.315.25.598.44.847.198.242.437.436.715.583.286.14.609.209.968.209.367 0 .693-.073.979-.22.286-.154.525-.356.715-.605.191-.257.334-.539.429-.847a3.03 3.03 0 00.154-.946c0-.337-.055-.66-.165-.968a2.543 2.543 0 00-.451-.836 1.972 1.972 0 00-.715-.583 1.998 1.998 0 00-.946-.22c-.374 0-.704.077-.99.231a2.128 2.128 0 00-.704.594 2.87 2.87 0 00-.44.836 3.192 3.192 0 00-.143.946z" fill="#000"/><defs><filter id="a" x="0" y="0" width="153" height="44" filterUnits="userSpaceOnUse" color-interpolation-filters="sRGB"><feFlood flood-opacity="0" result="BackgroundImageFix"/><feColorMatrix in="SourceAlpha" values="0 0 0 0 0 0 0 0 0 0 0 0 0 0 0 0 0 0 127 0" result="hardAlpha"/><feOffset dy="6"/><feGaussianBlur stdDeviation="3"/><feComposite in2="hardAlpha" operator="out"/><feColorMatrix values="0 0 0 0 0 0 0 0 0 0 0 0 0 0 0 0 0 0 0.25 0"/><feBlend in2="BackgroundImageFix" result="effect1_dropShadow_4155_676"/><feBlend in="SourceGraphic" in2="effect1_dropShadow_4155_676" result="shape"/></filter></defs></svg>