<svg width="269" height="44" fill="none" xmlns="http://www.w3.org/2000/svg"><g filter="url(#a)"><rect x="6" width="257" height="32" rx="8" fill="#fff"/><rect x="6.5" y=".5" width="256" height="31" rx="7.5" stroke="#639"/></g><path d="M47.354 16.354a.5.5 0 000-.707l-3.182-3.183a.5.5 0 10-.707.708L46.293 16l-2.828 2.828a.5.5 0 10.707.707l3.182-3.181zM24 16.5h23v-1H24v1z" fill="#1C1514"/><path d="M76.237 18.169V19.5h-5.423v-7.81h5.324v1.331h-3.806v1.881h3.289v1.232h-3.289v2.035h3.905zm3.251-3.685V19.5H77.97v-7.81h1.21l4.037 5.148v-5.137h1.518V19.5H83.47l-3.982-5.016zm12.394-2.794h1.54l2.87 7.81h-1.561l-.726-1.947h-2.728l-.715 1.947H89l2.882-7.81zm1.848 4.796l-1.078-3.223-1.122 3.223h2.2zM97.7 19.5v-7.81h3.311c.359 0 .689.073.99.22.3.147.561.345.781.594.227.25.403.528.528.836.124.308.187.623.187.946 0 .44-.103.858-.308 1.254a2.644 2.644 0 01-.847.968c-.36.25-.785.374-1.276.374h-1.849V19.5H97.7zm1.517-3.949h1.761a.844.844 0 00.495-.154c.146-.103.264-.25.352-.44.088-.198.132-.422.132-.671 0-.271-.052-.502-.154-.693a1.008 1.008 0 00-.385-.429.944.944 0 00-.506-.143h-1.695v2.53zm5.886 3.949v-7.81h3.311c.359 0 .689.073.99.22.301.147.561.345.781.594.227.25.403.528.528.836.125.308.187.623.187.946 0 .44-.103.858-.308 1.254a2.635 2.635 0 01-.847.968c-.359.25-.785.374-1.276.374h-1.848V19.5h-1.518zm1.518-3.949h1.76a.844.844 0 00.495-.154c.147-.103.264-.25.352-.44.088-.198.132-.422.132-.671a1.44 1.44 0 00-.154-.693 1.002 1.002 0 00-.385-.429.944.944 0 00-.506-.143h-1.694v2.53zm5.886 3.949v-7.81h3.454c.359 0 .689.073.99.22.308.147.572.345.792.594.227.25.399.528.517.836.124.308.187.623.187.946 0 .33-.059.649-.176.957-.11.3-.272.565-.484.792a2.243 2.243 0 01-.748.528l1.782 2.937h-1.672l-1.606-2.618h-1.518V19.5h-1.518zm1.518-3.949h1.903c.19 0 .359-.055.506-.165.146-.117.264-.271.352-.462.088-.19.132-.403.132-.638a1.314 1.314 0 00-.55-1.1.853.853 0 00-.506-.165h-1.837v2.53zm11.77 2.618V19.5h-5.423v-7.81h5.324v1.331h-3.806v1.881h3.289v1.232h-3.289v2.035h3.905zm3.251-3.685V19.5h-1.518v-7.81h1.21l4.037 5.148v-5.137h1.518V19.5h-1.265l-3.982-5.016zm7.422 5.016v-7.81h2.838c.851 0 1.562.176 2.134.528a3.269 3.269 0 011.287 1.408c.286.587.429 1.24.429 1.958 0 .792-.158 1.481-.473 2.068a3.34 3.34 0 01-1.342 1.364c-.572.323-1.25.484-2.035.484h-2.838zm5.159-3.916c0-.506-.092-.95-.275-1.331a2.063 2.063 0 00-.792-.902c-.345-.22-.763-.33-1.254-.33h-1.32v5.148h1.32c.499 0 .92-.11 1.265-.33.345-.227.605-.535.781-.924.183-.396.275-.84.275-1.331zm3.265 3.916v-7.81h3.454c.359 0 .689.073.99.22.308.147.572.345.792.594.227.25.4.528.517.836.125.308.187.623.187.946 0 .33-.059.649-.176.957a2.3 2.3 0 01-.484.792 2.243 2.243 0 01-.748.528l1.782 2.937h-1.672l-1.606-2.618h-1.518V19.5h-1.518zm1.518-3.949h1.903a.82.82 0 00.506-.165c.147-.117.264-.271.352-.462.088-.19.132-.403.132-.638 0-.25-.051-.466-.154-.649a1.257 1.257 0 00-.396-.451.853.853 0 00-.506-.165h-1.837v2.53zm11.771 2.618V19.5h-5.423v-7.81h5.324v1.331h-3.806v1.881h3.289v1.232h-3.289v2.035h3.905zm4.926 1.331v-7.81h3.311c.359 0 .689.073.99.22.3.147.561.345.781.594.227.25.403.528.528.836.124.308.187.623.187.946 0 .44-.103.858-.308 1.254a2.644 2.644 0 01-.847.968c-.36.25-.785.374-1.276.374h-1.848V19.5h-1.518zm1.518-3.949h1.76a.844.844 0 00.495-.154c.146-.103.264-.25.352-.44.088-.198.132-.422.132-.671 0-.271-.052-.502-.154-.693a1.008 1.008 0 00-.385-.429.944.944 0 00-.506-.143h-1.694v2.53zm5.885 3.949v-7.81h1.518v6.479h3.982V19.5h-5.5zm10.081.055c-.624 0-1.155-.103-1.595-.308a2.851 2.851 0 01-1.056-.869 3.788 3.788 0 01-.583-1.243 5.66 5.66 0 01-.187-1.463V11.69h1.518v3.982c0 .323.029.638.088.946.066.3.172.572.319.814.146.242.341.433.583.572.242.14.542.209.902.209.366 0 .671-.07.913-.209.249-.147.443-.341.583-.583.146-.242.253-.513.319-.814a4.45 4.45 0 00.099-.935V11.69h1.507v3.982c0 .535-.066 1.038-.198 1.507-.125.47-.327.884-.605 1.243a2.86 2.86 0 01-1.056.836c-.433.198-.95.297-1.551.297zm10.142-5.819a1.859 1.859 0 00-.286-.209 2.81 2.81 0 00-.495-.253c-.191-.08-.4-.15-.627-.209a2.48 2.48 0 00-.693-.099c-.411 0-.723.077-.935.231-.206.154-.308.37-.308.649 0 .213.066.381.198.506s.33.231.594.319c.264.088.594.183.99.286a6.55 6.55 0 011.331.462c.381.176.671.41.869.704.205.286.308.667.308 1.144 0 .418-.077.777-.231 1.078a1.937 1.937 0 01-.638.715c-.272.183-.58.319-.924.407a4.82 4.82 0 01-1.1.121c-.389 0-.778-.04-1.166-.121a6.391 6.391 0 01-1.122-.341 5.328 5.328 0 01-.99-.55l.671-1.309c.066.066.183.154.352.264.168.103.374.209.616.319.242.103.506.19.792.264.286.073.575.11.869.11.41 0 .722-.07.935-.209a.67.67 0 00.319-.594.661.661 0 00-.253-.55c-.169-.132-.404-.246-.704-.341a22.656 22.656 0 00-1.067-.33 6.808 6.808 0 01-1.232-.462c-.33-.176-.576-.396-.737-.66-.162-.264-.242-.594-.242-.99 0-.535.124-.983.374-1.342a2.346 2.346 0 011.034-.825c.432-.19.913-.286 1.441-.286.366 0 .711.04 1.034.121.33.08.638.187.924.319.286.132.542.275.77.429l-.671 1.232zm10.488 0a1.761 1.761 0 00-.286-.209 2.81 2.81 0 00-.495-.253c-.19-.08-.399-.15-.627-.209a2.47 2.47 0 00-.693-.099c-.41 0-.722.077-.935.231-.205.154-.308.37-.308.649 0 .213.066.381.198.506s.33.231.594.319c.264.088.594.183.99.286a6.53 6.53 0 011.331.462c.382.176.671.41.869.704.206.286.308.667.308 1.144 0 .418-.077.777-.231 1.078a1.928 1.928 0 01-.638.715 2.924 2.924 0 01-.924.407c-.344.08-.711.121-1.1.121-.388 0-.777-.04-1.166-.121a6.443 6.443 0 01-1.122-.341 5.393 5.393 0 01-.99-.55l.671-1.309c.066.066.184.154.352.264.169.103.374.209.616.319.242.103.506.19.792.264.286.073.576.11.869.11.411 0 .723-.07.935-.209a.669.669 0 00.319-.594.658.658 0 00-.253-.55c-.168-.132-.403-.246-.704-.341-.3-.103-.656-.213-1.067-.33a6.837 6.837 0 01-1.232-.462c-.33-.176-.575-.396-.737-.66-.161-.264-.242-.594-.242-.99 0-.535.125-.983.374-1.342a2.357 2.357 0 011.034-.825c.433-.19.913-.286 1.441-.286.367 0 .712.04 1.034.121.33.08.638.187.924.319.286.132.543.275.77.429l-.671 1.232zm5.955 5.819c-.624 0-1.155-.103-1.595-.308a2.851 2.851 0 01-1.056-.869 3.788 3.788 0 01-.583-1.243 5.66 5.66 0 01-.187-1.463V11.69h1.518v3.982c0 .323.029.638.088.946.066.3.172.572.319.814.146.242.341.433.583.572.242.14.542.209.902.209.366 0 .671-.07.913-.209.249-.147.443-.341.583-.583.146-.242.253-.513.319-.814a4.45 4.45 0 00.099-.935V11.69h1.507v3.982c0 .535-.066 1.038-.198 1.507-.125.47-.327.884-.605 1.243a2.86 2.86 0 01-1.056.836c-.433.198-.95.297-1.551.297zm5.489-.055v-7.81h3.454c.359 0 .689.073.99.22.308.147.572.345.792.594.227.25.399.528.517.836.124.308.187.623.187.946 0 .33-.059.649-.176.957-.11.3-.272.565-.484.792a2.243 2.243 0 01-.748.528l1.782 2.937h-1.672l-1.606-2.618h-1.518V19.5h-1.518zm1.518-3.949h1.903c.19 0 .359-.055.506-.165.146-.117.264-.271.352-.462.088-.19.132-.403.132-.638a1.314 1.314 0 00-.55-1.1.853.853 0 00-.506-.165h-1.837v2.53zm15.909 3.949v-5.126l-2.002 3.817h-.847l-2.002-3.817V19.5h-1.518v-7.81h1.628l2.31 4.444 2.332-4.444h1.617v7.81h-1.518zm7.031.055c-.572 0-1.093-.11-1.562-.33a3.79 3.79 0 01-1.199-.891 4.353 4.353 0 01-.77-1.276 4.05 4.05 0 01-.275-1.463c0-.52.095-1.016.286-1.485.198-.477.466-.898.803-1.265a3.782 3.782 0 011.21-.88c.469-.22.983-.33 1.54-.33a3.44 3.44 0 011.54.341 3.7 3.7 0 011.199.913c.33.381.587.807.77 1.276.183.47.275.953.275 1.452 0 .513-.095 1.008-.286 1.485-.191.47-.458.891-.803 1.265a3.698 3.698 0 01-2.728 1.188zm-2.266-3.96c0 .337.051.664.154.979.103.315.249.598.44.847.198.242.436.436.715.583.286.14.609.209.968.209.367 0 .693-.073.979-.22.286-.154.524-.356.715-.605.191-.257.334-.539.429-.847a3.03 3.03 0 00.154-.946c0-.337-.055-.66-.165-.968a2.562 2.562 0 00-.451-.836 1.98 1.98 0 00-.715-.583 2 2 0 00-.946-.22c-.374 0-.704.077-.99.231a2.118 2.118 0 00-.704.594c-.191.25-.337.528-.44.836a3.192 3.192 0 00-.143.946zm7.798 3.905v-7.81h1.518v7.81h-1.518z" fill="#000"/><defs><filter id="a" x="0" y="0" width="269" height="44" filterUnits="userSpaceOnUse" color-interpolation-filters="sRGB"><feFlood flood-opacity="0" result="BackgroundImageFix"/><feColorMatrix in="SourceAlpha" values="0 0 0 0 0 0 0 0 0 0 0 0 0 0 0 0 0 0 127 0" result="hardAlpha"/><feOffset dy="6"/><feGaussianBlur stdDeviation="3"/><feComposite in2="hardAlpha" operator="out"/><feColorMatrix values="0 0 0 0 0 0 0 0 0 0 0 0 0 0 0 0 0 0 0.25 0"/><feBlend in2="BackgroundImageFix" result="effect1_dropShadow_4427_580"/><feBlend in="SourceGraphic" in2="effect1_dropShadow_4427_580" result="shape"/></filter></defs></svg>