<svg width="147" height="44" fill="none" xmlns="http://www.w3.org/2000/svg"><g filter="url(#a)"><rect x="6" width="135" height="32" rx="8" fill="#fff"/><rect x="6.5" y=".5" width="134" height="31" rx="7.5" stroke="#639"/></g><path d="M47.354 16.354a.5.5 0 000-.707l-3.182-3.183a.5.5 0 10-.707.708L46.293 16l-2.828 2.828a.5.5 0 10.707.707l3.182-3.181zM24 16.5h23v-1H24v1z" fill="#1C1514"/><path d="M70.814 19.5v-7.81h1.518v6.479h3.982V19.5h-5.5zm10.08.055c-.623 0-1.154-.103-1.594-.308a2.858 2.858 0 01-1.056-.869 3.802 3.802 0 01-.583-1.243 5.677 5.677 0 01-.187-1.463V11.69h1.518v3.982c0 .323.03.638.088.946.066.3.172.572.319.814.146.242.34.433.583.572.242.14.542.209.902.209.366 0 .67-.07.913-.209.25-.147.443-.341.583-.583.146-.242.253-.513.319-.814a4.45 4.45 0 00.099-.935V11.69h1.507v3.982c0 .535-.066 1.038-.198 1.507-.125.47-.327.884-.605 1.243a2.85 2.85 0 01-1.056.836c-.433.198-.95.297-1.551.297zm11.859-.055v-5.126l-2.002 3.817h-.847l-2.002-3.817V19.5h-1.518v-7.81h1.628l2.31 4.444 2.332-4.444h1.617v7.81h-1.518zm3.698 0v-7.81h1.518v7.81h-1.518zm5.216-5.016V19.5h-1.518v-7.81h1.21l4.037 5.148v-5.137h1.518V19.5h-1.265l-3.982-5.016zm9.544-2.794h1.54l2.871 7.81h-1.562l-.726-1.947h-2.728l-.715 1.947h-1.562l2.882-7.81zm1.848 4.796l-1.078-3.223-1.122 3.223h2.2zm9.393 1.683V19.5h-5.423v-7.81h5.324v1.331h-3.806v1.881h3.289v1.232h-3.289v2.035h3.905z" fill="#000"/><defs><filter id="a" x="0" y="0" width="147" height="44" filterUnits="userSpaceOnUse" color-interpolation-filters="sRGB"><feFlood flood-opacity="0" result="BackgroundImageFix"/><feColorMatrix in="SourceAlpha" values="0 0 0 0 0 0 0 0 0 0 0 0 0 0 0 0 0 0 127 0" result="hardAlpha"/><feOffset dy="6"/><feGaussianBlur stdDeviation="3"/><feComposite in2="hardAlpha" operator="out"/><feColorMatrix values="0 0 0 0 0 0 0 0 0 0 0 0 0 0 0 0 0 0 0.25 0"/><feBlend in2="BackgroundImageFix" result="effect1_dropShadow_4121_504"/><feBlend in="SourceGraphic" in2="effect1_dropShadow_4121_504" result="shape"/></filter></defs></svg>