<svg width="143" height="44" fill="none" xmlns="http://www.w3.org/2000/svg"><g filter="url(#a)"><g filter="url(#b)"><rect x="6" width="131" height="32" rx="8" fill="#fff"/><rect x="6.5" y=".5" width="130" height="31" rx="7.5" stroke="#639"/></g><path d="M47.354 16.354a.5.5 0 000-.708l-3.182-3.182a.5.5 0 00-.707.707L46.293 16l-2.828 2.828a.5.5 0 10.707.707l3.182-3.181zM24 16.5h23v-1H24v1z" fill="#1C1514"/><path d="M76.655 13.021h-2.497V19.5h-1.507v-6.479h-2.497V11.69h6.501v1.331zm1.52 6.479v-7.81h3.454c.359 0 .689.073.99.22.308.147.572.345.791.594.228.25.4.528.517.836a2.5 2.5 0 01.188.946c0 .33-.06.649-.176.957-.11.3-.272.565-.484.792a2.239 2.239 0 01-.748.528l1.782 2.937h-1.672l-1.606-2.618h-1.519V19.5h-1.517zm1.517-3.949h1.904a.82.82 0 00.505-.165 1.25 1.25 0 00.353-.462c.088-.19.132-.403.132-.638 0-.25-.052-.466-.154-.649a1.25 1.25 0 00-.397-.451.852.852 0 00-.505-.165h-1.838v2.53zm8.471-3.861h1.54l2.871 7.81h-1.562l-.726-1.947h-2.728l-.715 1.947h-1.562l2.882-7.81zm1.848 4.796l-1.078-3.223-1.122 3.223h2.2zm3.97 3.014v-7.81h1.518v7.81H93.98zm3.697 0v-7.81h1.518v6.479h3.982V19.5h-5.5zm12.397-1.331V19.5h-5.423v-7.81h5.324v1.331h-3.806v1.881h3.289v1.232h-3.289v2.035h3.905zm1.733 1.331v-7.81h3.454c.36 0 .69.073.99.22.308.147.572.345.792.594.228.25.4.528.517.836.125.308.187.623.187.946 0 .33-.058.649-.176.957a2.3 2.3 0 01-.484.792 2.233 2.233 0 01-.748.528l1.782 2.937h-1.672l-1.606-2.618h-1.518V19.5h-1.518zm1.518-3.949h1.903c.191 0 .36-.055.506-.165.147-.117.264-.271.352-.462.088-.19.132-.403.132-.638 0-.25-.051-.466-.154-.649a1.239 1.239 0 00-.396-.451.85.85 0 00-.506-.165h-1.837v2.53z" fill="#000"/></g><defs><filter id="a" x="0" y="0" width="143" height="44" filterUnits="userSpaceOnUse" color-interpolation-filters="sRGB"><feFlood flood-opacity="0" result="BackgroundImageFix"/><feColorMatrix in="SourceAlpha" values="0 0 0 0 0 0 0 0 0 0 0 0 0 0 0 0 0 0 127 0" result="hardAlpha"/><feOffset dy="6"/><feGaussianBlur stdDeviation="3"/><feComposite in2="hardAlpha" operator="out"/><feColorMatrix values="0 0 0 0 0 0 0 0 0 0 0 0 0 0 0 0 0 0 0.25 0"/><feBlend in2="BackgroundImageFix" result="effect1_dropShadow_4736_903"/><feBlend in="SourceGraphic" in2="effect1_dropShadow_4736_903" result="shape"/></filter><filter id="b" x="0" y="0" width="143" height="44" filterUnits="userSpaceOnUse" color-interpolation-filters="sRGB"><feFlood flood-opacity="0" result="BackgroundImageFix"/><feColorMatrix in="SourceAlpha" values="0 0 0 0 0 0 0 0 0 0 0 0 0 0 0 0 0 0 127 0" result="hardAlpha"/><feOffset dy="6"/><feGaussianBlur stdDeviation="3"/><feComposite in2="hardAlpha" operator="out"/><feColorMatrix values="0 0 0 0 0 0 0 0 0 0 0 0 0 0 0 0 0 0 0.25 0"/><feBlend in2="BackgroundImageFix" result="effect1_dropShadow_4736_903"/><feBlend in="SourceGraphic" in2="effect1_dropShadow_4736_903" result="shape"/></filter></defs></svg>