<svg width="147" height="44" fill="none" xmlns="http://www.w3.org/2000/svg"><g filter="url(#a)"><rect x="6" width="135" height="32" rx="8" fill="#fff"/><rect x="6.5" y=".5" width="134" height="31" rx="7.5" stroke="#639"/></g><path d="M47.354 16.354a.5.5 0 000-.707l-3.182-3.183a.5.5 0 10-.707.708L46.293 16l-2.828 2.828a.5.5 0 10.707.707l3.182-3.181zM24 16.5h23v-1H24v1z" fill="#1C1514"/><path d="M72.937 11.69h1.54l2.871 7.81h-1.562l-.726-1.947h-2.728l-.715 1.947h-1.562l2.882-7.81zm1.848 4.796l-1.078-3.223-1.122 3.223h2.2zm6.97 3.069c-.624 0-1.156-.103-1.596-.308a2.856 2.856 0 01-1.056-.869 3.802 3.802 0 01-.583-1.243 5.673 5.673 0 01-.187-1.463V11.69h1.518v3.982c0 .323.03.638.088.946.066.3.172.572.32.814.146.242.34.433.582.572.242.14.543.209.902.209.367 0 .671-.07.913-.209.25-.147.444-.341.583-.583.147-.242.253-.513.32-.814a4.45 4.45 0 00.098-.935V11.69h1.507v3.982c0 .535-.066 1.038-.198 1.507-.125.47-.326.884-.605 1.243a2.85 2.85 0 01-1.056.836c-.433.198-.95.297-1.55.297zm5.488-.055v-7.81h3.454c.36 0 .69.073.99.22.308.147.572.345.792.594.227.25.4.528.517.836a2.5 2.5 0 01.187.946c0 .33-.059.649-.176.957-.11.3-.271.565-.484.792a2.24 2.24 0 01-.748.528l1.782 2.937h-1.672l-1.606-2.618h-1.518V19.5h-1.518zm1.518-3.949h1.903a.82.82 0 00.506-.165 1.25 1.25 0 00.352-.462c.088-.19.132-.403.132-.638 0-.25-.051-.466-.154-.649a1.252 1.252 0 00-.396-.451.852.852 0 00-.506-.165h-1.837v2.53zM95.11 19.5v-7.81h1.517v7.81H95.11zm3.213-1.144l4.356-5.335h-4.235V11.69h6.039v1.144l-4.213 5.335h4.246V19.5h-6.193v-1.144zm11.113 1.199c-.572 0-1.093-.11-1.562-.33a3.79 3.79 0 01-1.199-.891 4.353 4.353 0 01-.77-1.276 4.05 4.05 0 01-.275-1.463c0-.52.095-1.016.286-1.485.198-.477.466-.898.803-1.265a3.782 3.782 0 011.21-.88c.469-.22.983-.33 1.54-.33a3.44 3.44 0 011.54.341 3.7 3.7 0 011.199.913c.33.381.587.807.77 1.276.183.47.275.953.275 1.452 0 .513-.095 1.008-.286 1.485-.191.47-.458.891-.803 1.265a3.698 3.698 0 01-2.728 1.188zm-2.266-3.96c0 .337.051.664.154.979.103.315.249.598.44.847.198.242.436.436.715.583.286.14.609.209.968.209.367 0 .693-.073.979-.22.286-.154.524-.356.715-.605.191-.257.334-.539.429-.847a3.03 3.03 0 00.154-.946c0-.337-.055-.66-.165-.968a2.562 2.562 0 00-.451-.836 1.98 1.98 0 00-.715-.583 2 2 0 00-.946-.22c-.374 0-.704.077-.99.231a2.118 2.118 0 00-.704.594c-.191.25-.337.528-.44.836a3.192 3.192 0 00-.143.946zm9.316-1.111V19.5h-1.518v-7.81h1.21l4.037 5.148v-5.137h1.518V19.5h-1.265l-3.982-5.016z" fill="#000"/><defs><filter id="a" x="0" y="0" width="147" height="44" filterUnits="userSpaceOnUse" color-interpolation-filters="sRGB"><feFlood flood-opacity="0" result="BackgroundImageFix"/><feColorMatrix in="SourceAlpha" values="0 0 0 0 0 0 0 0 0 0 0 0 0 0 0 0 0 0 127 0" result="hardAlpha"/><feOffset dy="6"/><feGaussianBlur stdDeviation="3"/><feComposite in2="hardAlpha" operator="out"/><feColorMatrix values="0 0 0 0 0 0 0 0 0 0 0 0 0 0 0 0 0 0 0.25 0"/><feBlend in2="BackgroundImageFix" result="effect1_dropShadow_3983_448"/><feBlend in="SourceGraphic" in2="effect1_dropShadow_3983_448" result="shape"/></filter></defs></svg>