<svg width="174" height="44" fill="none" xmlns="http://www.w3.org/2000/svg"><g filter="url(#a)"><rect x="6" width="162" height="32" rx="8" fill="#fff"/><rect x="6.5" y=".5" width="161" height="31" rx="7.5" stroke="#639"/></g><path d="M47.354 16.354a.5.5 0 000-.707l-3.182-3.182a.5.5 0 10-.707.707L46.293 16l-2.828 2.828a.5.5 0 10.707.708l3.182-3.182zM24 16.5h23v-1H24v1z" fill="#1C1514"/><path d="M70.814 19.5v-7.81h3.311c.36 0 .69.073.99.22.3.147.561.345.781.594.227.25.403.528.528.836a2.5 2.5 0 01.187.946c0 .44-.103.858-.308 1.254a2.635 2.635 0 01-.847.968c-.36.25-.785.374-1.276.374h-1.848V19.5h-1.518zm1.518-3.949h1.76a.843.843 0 00.495-.154c.147-.103.264-.25.352-.44.088-.198.132-.422.132-.671 0-.271-.051-.502-.154-.693a1.002 1.002 0 00-.385-.429.943.943 0 00-.506-.143h-1.694v2.53zm5.886 3.949v-7.81h1.517v6.479h3.983V19.5h-5.5zm10.08.055c-.623 0-1.155-.103-1.595-.308a2.858 2.858 0 01-1.056-.869 3.802 3.802 0 01-.583-1.243 5.677 5.677 0 01-.187-1.463V11.69h1.518v3.982c0 .323.03.638.088.946.066.3.173.572.32.814.146.242.34.433.582.572.242.14.543.209.902.209.367 0 .671-.07.913-.209.25-.147.444-.341.583-.583.147-.242.253-.513.32-.814a4.45 4.45 0 00.098-.935V11.69h1.507v3.982c0 .535-.066 1.038-.198 1.507-.124.47-.326.884-.605 1.243a2.85 2.85 0 01-1.056.836c-.432.198-.95.297-1.55.297zm10.142-5.819a1.804 1.804 0 00-.286-.209 2.81 2.81 0 00-.495-.253c-.19-.08-.4-.15-.627-.209a2.473 2.473 0 00-.693-.099c-.41 0-.722.077-.935.231-.205.154-.308.37-.308.649 0 .213.066.381.198.506s.33.231.594.319c.264.088.594.183.99.286.514.125.957.279 1.331.462.382.176.671.41.87.704.205.286.307.667.307 1.144 0 .418-.077.777-.23 1.078a1.933 1.933 0 01-.639.715 2.93 2.93 0 01-.924.407c-.344.08-.711.121-1.1.121-.388 0-.777-.04-1.166-.121a6.412 6.412 0 01-1.122-.341 5.373 5.373 0 01-.99-.55l.671-1.309c.066.066.184.154.352.264.169.103.374.209.616.319.242.103.506.19.792.264.286.073.576.11.87.11.41 0 .722-.07.934-.209a.67.67 0 00.32-.594.66.66 0 00-.254-.55c-.168-.132-.403-.246-.704-.341-.3-.103-.656-.213-1.067-.33a6.829 6.829 0 01-1.232-.462c-.33-.176-.575-.396-.737-.66-.161-.264-.242-.594-.242-.99 0-.535.125-.983.374-1.342a2.352 2.352 0 011.034-.825c.433-.19.913-.286 1.441-.286.367 0 .712.04 1.034.121.33.08.638.187.924.319.286.132.543.275.77.429l-.67 1.232zm5.836 5.764v-7.81h2.838c.851 0 1.562.176 2.134.528a3.269 3.269 0 011.287 1.408c.286.587.429 1.24.429 1.958 0 .792-.158 1.481-.473 2.068a3.34 3.34 0 01-1.342 1.364c-.572.323-1.25.484-2.035.484h-2.838zm5.159-3.916c0-.506-.092-.95-.275-1.331a2.063 2.063 0 00-.792-.902c-.345-.22-.763-.33-1.254-.33h-1.32v5.148h1.32c.499 0 .92-.11 1.265-.33.345-.227.605-.535.781-.924.183-.396.275-.84.275-1.331zm2.383-1.287l.253-1.342h-.44V11.47h1.474v1.507l-.385 1.32h-.902zm3.215 5.203v-7.81h1.518v7.81h-1.518zm5.216-5.016V19.5h-1.518v-7.81h1.21l4.037 5.148v-5.137h1.518V19.5h-1.265l-3.982-5.016zm7.421 5.016v-7.81h5.247v1.331h-3.729v2.013h3.102v1.232h-3.102V19.5h-1.518zm10.081.055c-.572 0-1.092-.11-1.562-.33a3.802 3.802 0 01-1.199-.891 4.375 4.375 0 01-.77-1.276 4.05 4.05 0 01-.275-1.463c0-.52.096-1.016.286-1.485.198-.477.466-.898.803-1.265a3.782 3.782 0 011.21-.88c.47-.22.983-.33 1.54-.33a3.44 3.44 0 011.54.341c.47.227.869.532 1.199.913.33.381.587.807.77 1.276.184.47.275.953.275 1.452 0 .513-.095 1.008-.286 1.485-.19.47-.458.891-.803 1.265-.337.367-.74.656-1.21.869a3.586 3.586 0 01-1.518.319zm-2.266-3.96c0 .337.052.664.154.979.103.315.25.598.44.847.198.242.437.436.715.583.286.14.609.209.968.209.367 0 .693-.073.979-.22.286-.154.525-.356.715-.605.191-.257.334-.539.429-.847a3.03 3.03 0 00.154-.946c0-.337-.055-.66-.165-.968a2.543 2.543 0 00-.451-.836 1.972 1.972 0 00-.715-.583 1.998 1.998 0 00-.946-.22c-.374 0-.704.077-.99.231a2.128 2.128 0 00-.704.594 2.87 2.87 0 00-.44.836 3.192 3.192 0 00-.143.946zm12.419-1.859a1.859 1.859 0 00-.286-.209 2.81 2.81 0 00-.495-.253c-.191-.08-.4-.15-.627-.209a2.48 2.48 0 00-.693-.099c-.411 0-.723.077-.935.231-.206.154-.308.37-.308.649 0 .213.066.381.198.506s.33.231.594.319c.264.088.594.183.99.286a6.55 6.55 0 011.331.462c.381.176.671.41.869.704.205.286.308.667.308 1.144 0 .418-.077.777-.231 1.078a1.937 1.937 0 01-.638.715c-.272.183-.58.319-.924.407a4.82 4.82 0 01-1.1.121c-.389 0-.778-.04-1.166-.121a6.391 6.391 0 01-1.122-.341 5.328 5.328 0 01-.99-.55l.671-1.309c.066.066.183.154.352.264.168.103.374.209.616.319.242.103.506.19.792.264.286.073.575.11.869.11.41 0 .722-.07.935-.209a.67.67 0 00.319-.594.661.661 0 00-.253-.55c-.169-.132-.404-.246-.704-.341a22.656 22.656 0 00-1.067-.33 6.808 6.808 0 01-1.232-.462c-.33-.176-.576-.396-.737-.66-.162-.264-.242-.594-.242-.99 0-.535.124-.983.374-1.342a2.346 2.346 0 011.034-.825c.432-.19.913-.286 1.441-.286.366 0 .711.04 1.034.121.33.08.638.187.924.319.286.132.542.275.77.429l-.671 1.232z" fill="#000"/><defs><filter id="a" x="0" y="0" width="174" height="44" filterUnits="userSpaceOnUse" color-interpolation-filters="sRGB"><feFlood flood-opacity="0" result="BackgroundImageFix"/><feColorMatrix in="SourceAlpha" values="0 0 0 0 0 0 0 0 0 0 0 0 0 0 0 0 0 0 127 0" result="hardAlpha"/><feOffset dy="6"/><feGaussianBlur stdDeviation="3"/><feComposite in2="hardAlpha" operator="out"/><feColorMatrix values="0 0 0 0 0 0 0 0 0 0 0 0 0 0 0 0 0 0 0.25 0"/><feBlend in2="BackgroundImageFix" result="effect1_dropShadow_4551_1176"/><feBlend in="SourceGraphic" in2="effect1_dropShadow_4551_1176" result="shape"/></filter></defs></svg>