<svg width="26" height="27" fill="none" xmlns="http://www.w3.org/2000/svg"><g clip-path="url(#a)"><path d="M13 0a12.66 12.66 0 00-7.222 2.275A13.403 13.403 0 00.99 8.334a13.983 13.983 0 00-.74 7.8 13.668 13.668 0 003.558 6.912 12.858 12.858 0 006.656 3.695c2.522.52 5.135.253 7.51-.769A13.12 13.12 0 0023.81 21 13.872 13.872 0 0026 13.5c-.004-3.58-1.375-7.01-3.812-9.542C19.751 1.428 16.447.004 13 0zm9.686 12.375h-3.768a21.239 21.239 0 00-2.48-8.337 9.799 9.799 0 014.253 3.257 10.357 10.357 0 011.995 5.08zM10.492 15.75h5.016A19.501 19.501 0 0113 22.387a19.49 19.49 0 01-2.508-6.637zm-.143-3.375A18.734 18.734 0 0113 4.612a18.73 18.73 0 012.65 7.763h-5.3zm-.787-8.337a21.24 21.24 0 00-2.48 8.337H3.314c.203-1.852.893-3.61 1.996-5.08a9.799 9.799 0 014.252-3.257zM3.502 15.75h3.692a21.827 21.827 0 002.368 7.212 9.778 9.778 0 01-3.9-2.817 10.295 10.295 0 01-2.16-4.395zm12.937 7.212a21.803 21.803 0 002.367-7.212h3.693a10.295 10.295 0 01-2.16 4.395 9.777 9.777 0 01-3.9 2.817z" fill="#EFEDE7"/></g><defs><clipPath id="a"><path fill="#fff" d="M0 0H26V27H0z"/></clipPath></defs></svg>