<svg width="221" height="44" fill="none" xmlns="http://www.w3.org/2000/svg"><g filter="url(#a)"><rect x="6" width="209" height="32" rx="8" fill="#fff"/><rect x="6.5" y=".5" width="208" height="31" rx="7.5" stroke="#639"/></g><path d="M47.354 16.354a.5.5 0 000-.708l-3.182-3.182a.5.5 0 00-.707.707L46.293 16l-2.828 2.828a.5.5 0 10.707.707l3.182-3.181zM24 16.5h23v-1H24v1z" fill="#1C1514"/><path d="M77.183 19.5v-5.126l-2.002 3.817h-.847l-2.002-3.817V19.5h-1.518v-7.81h1.628l2.31 4.444 2.332-4.444h1.617v7.81h-1.518zm7.032.055c-.572 0-1.093-.11-1.562-.33a3.794 3.794 0 01-1.2-.891 4.36 4.36 0 01-.77-1.276 4.042 4.042 0 01-.274-1.463c0-.52.095-1.016.286-1.485a4.27 4.27 0 01.803-1.265 3.778 3.778 0 011.21-.88c.469-.22.982-.33 1.54-.33.564 0 1.078.114 1.54.341.469.227.869.532 1.199.913.33.381.586.807.77 1.276.183.47.275.953.275 1.452 0 .513-.096 1.008-.286 1.485-.191.47-.459.891-.803 1.265a3.7 3.7 0 01-1.21.869 3.586 3.586 0 01-1.518.319zm-2.266-3.96c0 .337.05.664.154.979.102.315.249.598.44.847.198.242.436.436.715.583.286.14.608.209.968.209.366 0 .693-.073.979-.22.286-.154.524-.356.715-.605a2.8 2.8 0 00.429-.847c.102-.315.154-.63.154-.946 0-.337-.055-.66-.165-.968a2.556 2.556 0 00-.451-.836 1.977 1.977 0 00-.715-.583 2 2 0 00-.946-.22c-.374 0-.704.077-.99.231a2.117 2.117 0 00-.704.594c-.191.25-.338.528-.44.836a3.18 3.18 0 00-.143.946zm7.797 3.905v-7.81H93.2c.36 0 .69.073.99.22.308.147.572.345.792.594.227.25.4.528.517.836a2.5 2.5 0 01.187.946c0 .33-.059.649-.176.957-.11.3-.271.565-.484.792a2.239 2.239 0 01-.748.528L96.06 19.5h-1.672l-1.606-2.618h-1.518V19.5h-1.518zm1.518-3.949h1.903a.82.82 0 00.506-.165 1.25 1.25 0 00.352-.462c.088-.19.132-.403.132-.638 0-.25-.051-.466-.154-.649a1.25 1.25 0 00-.396-.451.852.852 0 00-.506-.165h-1.837v2.53zm11.77 2.618V19.5h-5.422v-7.81h5.323v1.331h-3.806v1.881h3.289v1.232h-3.289v2.035h3.905zm4.926 1.331v-7.81h1.518v7.81h-1.518zm5.216-5.016V19.5h-1.518v-7.81h1.21l4.037 5.148v-5.137h1.518V19.5h-1.265l-3.982-5.016zm7.422 5.016v-7.81h5.247v1.331h-3.729v2.013h3.102v1.232h-3.102V19.5h-1.518zm10.081.055c-.572 0-1.093-.11-1.562-.33a3.79 3.79 0 01-1.199-.891 4.353 4.353 0 01-.77-1.276 4.05 4.05 0 01-.275-1.463c0-.52.095-1.016.286-1.485.198-.477.466-.898.803-1.265a3.782 3.782 0 011.21-.88c.469-.22.983-.33 1.54-.33a3.44 3.44 0 011.54.341 3.7 3.7 0 011.199.913c.33.381.587.807.77 1.276.183.47.275.953.275 1.452 0 .513-.095 1.008-.286 1.485-.191.47-.458.891-.803 1.265a3.698 3.698 0 01-2.728 1.188zm-2.266-3.96c0 .337.051.664.154.979.103.315.249.598.44.847.198.242.436.436.715.583.286.14.609.209.968.209.367 0 .693-.073.979-.22.286-.154.524-.356.715-.605.191-.257.334-.539.429-.847a3.03 3.03 0 00.154-.946c0-.337-.055-.66-.165-.968a2.562 2.562 0 00-.451-.836 1.98 1.98 0 00-.715-.583 2 2 0 00-.946-.22c-.374 0-.704.077-.99.231a2.118 2.118 0 00-.704.594c-.191.25-.337.528-.44.836a3.192 3.192 0 00-.143.946zm7.797 3.905v-7.81h3.454c.36 0 .69.073.99.22.308.147.572.345.792.594.228.25.4.528.517.836.125.308.187.623.187.946 0 .33-.058.649-.176.957a2.3 2.3 0 01-.484.792 2.233 2.233 0 01-.748.528l1.782 2.937h-1.672l-1.606-2.618h-1.518V19.5h-1.518zm1.518-3.949h1.903c.191 0 .36-.055.506-.165.147-.117.264-.271.352-.462.088-.19.132-.403.132-.638 0-.25-.051-.466-.154-.649a1.239 1.239 0 00-.396-.451.85.85 0 00-.506-.165h-1.837v2.53zm12.717 3.949v-5.126l-2.002 3.817h-.847l-2.002-3.817V19.5h-1.518v-7.81h1.628l2.31 4.444 2.332-4.444h1.617v7.81h-1.518zm5.821-7.81h1.54l2.871 7.81h-1.562l-.726-1.947h-2.728l-.715 1.947h-1.562l2.882-7.81zm1.848 4.796l-1.078-3.223-1.122 3.223h2.2zm9.08-3.465h-2.497V19.5h-1.507v-6.479h-2.497V11.69h6.501v1.331zm1.52 6.479v-7.81h1.518v7.81h-1.518zm7.03.055c-.572 0-1.092-.11-1.562-.33a3.802 3.802 0 01-1.199-.891 4.375 4.375 0 01-.77-1.276 4.05 4.05 0 01-.275-1.463c0-.52.096-1.016.286-1.485.198-.477.466-.898.803-1.265a3.782 3.782 0 011.21-.88c.47-.22.983-.33 1.54-.33a3.44 3.44 0 011.54.341c.47.227.869.532 1.199.913.33.381.587.807.77 1.276.184.47.275.953.275 1.452 0 .513-.095 1.008-.286 1.485-.19.47-.458.891-.803 1.265-.337.367-.74.656-1.21.869a3.586 3.586 0 01-1.518.319zm-2.266-3.96c0 .337.052.664.154.979.103.315.25.598.44.847.198.242.437.436.715.583.286.14.609.209.968.209.367 0 .693-.073.979-.22.286-.154.525-.356.715-.605.191-.257.334-.539.429-.847a3.03 3.03 0 00.154-.946c0-.337-.055-.66-.165-.968a2.543 2.543 0 00-.451-.836 1.972 1.972 0 00-.715-.583 1.998 1.998 0 00-.946-.22c-.374 0-.704.077-.99.231a2.128 2.128 0 00-.704.594 2.87 2.87 0 00-.44.836 3.192 3.192 0 00-.143.946zm9.316-1.111V19.5h-1.518v-7.81h1.21l4.037 5.148v-5.137h1.518V19.5h-1.265l-3.982-5.016zm12.075-.748a1.859 1.859 0 00-.286-.209 2.81 2.81 0 00-.495-.253c-.191-.08-.4-.15-.627-.209a2.48 2.48 0 00-.693-.099c-.411 0-.723.077-.935.231-.206.154-.308.37-.308.649 0 .213.066.381.198.506s.33.231.594.319c.264.088.594.183.99.286a6.55 6.55 0 011.331.462c.381.176.671.41.869.704.205.286.308.667.308 1.144 0 .418-.077.777-.231 1.078a1.937 1.937 0 01-.638.715c-.272.183-.58.319-.924.407a4.82 4.82 0 01-1.1.121c-.389 0-.778-.04-1.166-.121a6.391 6.391 0 01-1.122-.341 5.328 5.328 0 01-.99-.55l.671-1.309c.066.066.183.154.352.264.168.103.374.209.616.319.242.103.506.19.792.264.286.073.575.11.869.11.41 0 .722-.07.935-.209a.67.67 0 00.319-.594.661.661 0 00-.253-.55c-.169-.132-.404-.246-.704-.341a22.656 22.656 0 00-1.067-.33 6.808 6.808 0 01-1.232-.462c-.33-.176-.576-.396-.737-.66-.162-.264-.242-.594-.242-.99 0-.535.124-.983.374-1.342a2.346 2.346 0 011.034-.825c.432-.19.913-.286 1.441-.286.366 0 .711.04 1.034.121.33.08.638.187.924.319.286.132.542.275.77.429l-.671 1.232z" fill="#000"/><defs><filter id="a" x="0" y="0" width="221" height="44" filterUnits="userSpaceOnUse" color-interpolation-filters="sRGB"><feFlood flood-opacity="0" result="BackgroundImageFix"/><feColorMatrix in="SourceAlpha" values="0 0 0 0 0 0 0 0 0 0 0 0 0 0 0 0 0 0 127 0" result="hardAlpha"/><feOffset dy="6"/><feGaussianBlur stdDeviation="3"/><feComposite in2="hardAlpha" operator="out"/><feColorMatrix values="0 0 0 0 0 0 0 0 0 0 0 0 0 0 0 0 0 0 0.25 0"/><feBlend in2="BackgroundImageFix" result="effect1_dropShadow_4736_863"/><feBlend in="SourceGraphic" in2="effect1_dropShadow_4736_863" result="shape"/></filter></defs></svg>