<svg width="143" height="44" fill="none" xmlns="http://www.w3.org/2000/svg"><g filter="url(#a)"><rect x="6" width="131" height="32" rx="8" fill="#fff"/><rect x="6.5" y=".5" width="130" height="31" rx="7.5" stroke="#639"/></g><path d="M47.354 16.354a.5.5 0 000-.707l-3.182-3.183a.5.5 0 10-.707.708L46.293 16l-2.828 2.828a.5.5 0 10.707.707l3.182-3.181zM24 16.5h23v-1H24v1z" fill="#1C1514"/><path d="M70.341 15.54c0-.477.084-.942.253-1.397.176-.462.429-.88.759-1.254a3.54 3.54 0 011.21-.902c.477-.227 1.02-.341 1.628-.341.719 0 1.338.158 1.859.473.528.315.92.726 1.177 1.232l-1.166.803a1.813 1.813 0 00-.517-.693 1.814 1.814 0 00-.682-.363 2.458 2.458 0 00-.715-.11 2.08 2.08 0 00-1.001.231 2.24 2.24 0 00-.704.605c-.19.25-.334.528-.429.836a3.35 3.35 0 00-.132.924c0 .345.055.678.165 1.001.11.315.264.598.462.847.205.242.447.436.726.583.286.14.598.209.935.209.242 0 .488-.04.737-.121.25-.08.48-.209.693-.385.213-.176.378-.403.495-.682l1.243.715a2.312 2.312 0 01-.759.99 3.702 3.702 0 01-1.166.616c-.433.14-.862.209-1.287.209a3.416 3.416 0 01-1.529-.341 4.01 4.01 0 01-1.199-.924 4.674 4.674 0 01-.781-1.298 4.103 4.103 0 01-.275-1.463zm8.564 3.96v-7.81h1.518v7.81h-1.518zm5.216-5.016V19.5h-1.518v-7.81h1.21l4.037 5.148v-5.137h1.518V19.5h-1.265l-3.982-5.016zm9.544-2.794h1.54l2.871 7.81h-1.562l-.726-1.947H93.06l-.715 1.947h-1.562l2.882-7.81zm1.848 4.796l-1.078-3.223-1.122 3.223h2.2zm3.97 3.014v-7.81h3.454c.359 0 .689.073.99.22.308.147.572.345.792.594.227.25.399.528.517.836.124.308.187.623.187.946 0 .33-.059.649-.176.957-.11.3-.272.565-.484.792a2.243 2.243 0 01-.748.528l1.782 2.937h-1.672l-1.606-2.618h-1.518V19.5h-1.518zM101 15.551h1.903c.19 0 .359-.055.506-.165.146-.117.264-.271.352-.462.088-.19.132-.403.132-.638a1.314 1.314 0 00-.55-1.1.853.853 0 00-.506-.165h-1.837v2.53zm6.347 3.949v-7.81h1.518v7.81h-1.518zm7.031.055c-.572 0-1.093-.11-1.562-.33a3.79 3.79 0 01-1.199-.891 4.353 4.353 0 01-.77-1.276 4.03 4.03 0 01.011-2.948c.198-.477.465-.898.803-1.265a3.771 3.771 0 011.21-.88 3.58 3.58 0 011.54-.33c.564 0 1.078.114 1.54.341a3.7 3.7 0 011.199.913c.33.381.586.807.77 1.276a3.976 3.976 0 01-.011 2.937c-.191.47-.459.891-.803 1.265a3.709 3.709 0 01-1.21.869 3.586 3.586 0 01-1.518.319zm-2.266-3.96c0 .337.051.664.154.979.102.315.249.598.44.847.198.242.436.436.715.583.286.14.608.209.968.209.366 0 .693-.073.979-.22.286-.154.524-.356.715-.605.19-.257.333-.539.429-.847a3.06 3.06 0 00.154-.946c0-.337-.055-.66-.165-.968a2.562 2.562 0 00-.451-.836 1.98 1.98 0 00-.715-.583 2 2 0 00-.946-.22c-.374 0-.704.077-.99.231a2.108 2.108 0 00-.704.594c-.191.25-.338.528-.44.836a3.16 3.16 0 00-.143.946z" fill="#000"/><defs><filter id="a" x="0" y="0" width="143" height="44" filterUnits="userSpaceOnUse" color-interpolation-filters="sRGB"><feFlood flood-opacity="0" result="BackgroundImageFix"/><feColorMatrix in="SourceAlpha" values="0 0 0 0 0 0 0 0 0 0 0 0 0 0 0 0 0 0 127 0" result="hardAlpha"/><feOffset dy="6"/><feGaussianBlur stdDeviation="3"/><feComposite in2="hardAlpha" operator="out"/><feColorMatrix values="0 0 0 0 0 0 0 0 0 0 0 0 0 0 0 0 0 0 0.25 0"/><feBlend in2="BackgroundImageFix" result="effect1_dropShadow_4550_362"/><feBlend in="SourceGraphic" in2="effect1_dropShadow_4550_362" result="shape"/></filter></defs></svg>