<svg width="161" height="44" fill="none" xmlns="http://www.w3.org/2000/svg"><g filter="url(#a)"><rect x="6" width="149" height="32" rx="8" fill="#fff"/><rect x="6.5" y=".5" width="148" height="31" rx="7.5" stroke="#639"/></g><path d="M47.354 16.354a.5.5 0 000-.708l-3.182-3.182a.5.5 0 00-.707.707L46.293 16l-2.828 2.828a.5.5 0 10.707.707l3.182-3.181zM24 16.5h23v-1H24v1z" fill="#1C1514"/><path d="M77.106 17.487c0 .44-.114.81-.341 1.111a2.131 2.131 0 01-.924.671c-.381.154-.8.231-1.254.231h-3.773v-7.81h4.18c.367 0 .682.099.946.297.271.19.477.44.616.748a2.13 2.13 0 01-.066 2.013c-.19.337-.47.587-.836.748.447.132.8.37 1.056.715.264.345.396.77.396 1.276zm-1.529-.286c0-.198-.04-.374-.121-.528a.914.914 0 00-.33-.374.768.768 0 00-.462-.143h-2.332v2.057h2.255a.944.944 0 00.495-.132c.154-.095.275-.22.363-.374.088-.154.132-.323.132-.506zm-3.245-4.213v1.969h2.024c.169 0 .323-.04.462-.121a.87.87 0 00.33-.341c.088-.147.132-.323.132-.528 0-.198-.04-.37-.121-.517a.818.818 0 00-.737-.462h-2.09zm9.842 6.567c-.572 0-1.093-.11-1.562-.33a3.794 3.794 0 01-1.2-.891 4.36 4.36 0 01-.77-1.276 4.042 4.042 0 01-.274-1.463c0-.52.095-1.016.286-1.485a4.27 4.27 0 01.803-1.265 3.778 3.778 0 011.21-.88c.469-.22.982-.33 1.54-.33.564 0 1.078.114 1.54.341.469.227.869.532 1.199.913.33.381.586.807.77 1.276.183.47.275.953.275 1.452 0 .513-.096 1.008-.286 1.485-.191.47-.459.891-.803 1.265a3.7 3.7 0 01-1.21.869 3.586 3.586 0 01-1.518.319zm-2.266-3.96c0 .337.05.664.154.979.102.315.249.598.44.847.198.242.436.436.715.583.286.14.608.209.968.209.366 0 .693-.073.979-.22.286-.154.524-.356.715-.605a2.8 2.8 0 00.429-.847c.102-.315.154-.63.154-.946 0-.337-.055-.66-.165-.968a2.556 2.556 0 00-.451-.836 1.977 1.977 0 00-.715-.583 2 2 0 00-.946-.22c-.374 0-.704.077-.99.231a2.117 2.117 0 00-.704.594c-.191.25-.338.528-.44.836a3.18 3.18 0 00-.143.946zm7.324-.055c0-.477.084-.942.253-1.397.176-.462.429-.88.759-1.254a3.54 3.54 0 011.21-.902c.477-.227 1.02-.341 1.628-.341.719 0 1.338.158 1.859.473.528.315.92.726 1.177 1.232l-1.166.803a1.813 1.813 0 00-.517-.693 1.814 1.814 0 00-.682-.363 2.458 2.458 0 00-.715-.11 2.08 2.08 0 00-1.001.231 2.24 2.24 0 00-.704.605c-.19.25-.334.528-.429.836a3.35 3.35 0 00-.132.924c0 .345.055.678.165 1.001.11.315.264.598.462.847.205.242.447.436.726.583.286.14.598.209.935.209.242 0 .488-.04.737-.121.25-.08.48-.209.693-.385.213-.176.378-.403.495-.682l1.243.715a2.312 2.312 0 01-.759.99 3.702 3.702 0 01-1.166.616c-.433.14-.862.209-1.287.209a3.416 3.416 0 01-1.529-.341 4.01 4.01 0 01-1.199-.924 4.674 4.674 0 01-.781-1.298 4.103 4.103 0 01-.275-1.463zm15.131-3.85v7.81h-1.507v-3.333h-3.542V19.5h-1.518v-7.81h1.518v3.157h3.542V11.69h1.507zm2.179 7.81v-7.81h1.518v7.81h-1.518zm9.99-2.013c0 .44-.114.81-.341 1.111a2.14 2.14 0 01-.924.671c-.382.154-.8.231-1.254.231h-3.773v-7.81h4.18c.366 0 .682.099.946.297.271.19.476.44.616.748a2.14 2.14 0 01-.066 2.013c-.191.337-.47.587-.836.748.447.132.799.37 1.056.715.264.345.396.77.396 1.276zm-1.529-.286a1.13 1.13 0 00-.121-.528.918.918 0 00-.33-.374.768.768 0 00-.462-.143h-2.332v2.057h2.255a.945.945 0 00.495-.132c.154-.095.275-.22.363-.374.088-.154.132-.323.132-.506zm-3.245-4.213v1.969h2.024c.168 0 .322-.04.462-.121a.873.873 0 00.33-.341c.088-.147.132-.323.132-.528 0-.198-.041-.37-.121-.517a.823.823 0 00-.737-.462h-2.09zm8.459-1.298h1.54l2.871 7.81h-1.562l-.726-1.947h-2.728l-.715 1.947h-1.562l2.882-7.81zm1.848 4.796l-1.078-3.223-1.122 3.223h2.2zm3.97 3.014v-7.81h1.518v6.479h3.982V19.5h-5.5zm6.974 0v-7.81h1.518v6.479h3.982V19.5h-5.5z" fill="#000"/><defs><filter id="a" x="0" y="0" width="161" height="44" filterUnits="userSpaceOnUse" color-interpolation-filters="sRGB"><feFlood flood-opacity="0" result="BackgroundImageFix"/><feColorMatrix in="SourceAlpha" values="0 0 0 0 0 0 0 0 0 0 0 0 0 0 0 0 0 0 127 0" result="hardAlpha"/><feOffset dy="6"/><feGaussianBlur stdDeviation="3"/><feComposite in2="hardAlpha" operator="out"/><feColorMatrix values="0 0 0 0 0 0 0 0 0 0 0 0 0 0 0 0 0 0 0.25 0"/><feBlend in2="BackgroundImageFix" result="effect1_dropShadow_4170_701"/><feBlend in="SourceGraphic" in2="effect1_dropShadow_4170_701" result="shape"/></filter></defs></svg>