<svg width="213" height="44" fill="none" xmlns="http://www.w3.org/2000/svg"><g filter="url(#a)"><g filter="url(#b)"><rect x="6" width="201" height="32" rx="8" fill="#fff"/><rect x="6.5" y=".5" width="200" height="31" rx="7.5" stroke="#639"/></g><path d="M47.354 16.354a.5.5 0 000-.707l-3.182-3.183a.5.5 0 10-.707.708L46.293 16l-2.828 2.828a.5.5 0 10.707.707l3.182-3.181zM24 16.5h23v-1H24v1z" fill="#1C1514"/><path d="M77.106 17.487c0 .44-.114.81-.341 1.111a2.131 2.131 0 01-.924.671c-.381.154-.8.231-1.254.231h-3.773v-7.81h4.18c.367 0 .682.099.946.297.271.19.477.44.616.748a2.13 2.13 0 01-.066 2.013c-.19.337-.47.587-.836.748.447.132.8.37 1.056.715.264.345.396.77.396 1.276zm-1.529-.286c0-.198-.04-.374-.121-.528a.914.914 0 00-.33-.374.768.768 0 00-.462-.143h-2.332v2.057h2.255a.944.944 0 00.495-.132c.154-.095.275-.22.363-.374.088-.154.132-.323.132-.506zm-3.245-4.213v1.969h2.024c.169 0 .323-.04.462-.121a.87.87 0 00.33-.341c.088-.147.132-.323.132-.528 0-.198-.04-.37-.121-.517a.818.818 0 00-.737-.462h-2.09zm8.46-1.298h1.54l2.87 7.81h-1.561l-.726-1.947h-2.728l-.715 1.947H77.91l2.882-7.81zm1.848 4.796l-1.078-3.223-1.122 3.223h2.2zm5.487-2.002V19.5H86.61v-7.81h1.21l4.037 5.148v-5.137h1.518V19.5H92.11l-3.982-5.016zM95.55 19.5v-7.81h2.838c.85 0 1.562.176 2.134.528a3.269 3.269 0 011.287 1.408c.286.587.429 1.24.429 1.958 0 .792-.158 1.481-.473 2.068a3.34 3.34 0 01-1.342 1.364c-.572.323-1.25.484-2.035.484h-2.838zm5.159-3.916c0-.506-.092-.95-.275-1.331a2.066 2.066 0 00-.792-.902c-.345-.22-.763-.33-1.254-.33h-1.32v5.148h1.32c.499 0 .92-.11 1.265-.33.345-.227.605-.535.781-.924.183-.396.275-.84.275-1.331zm8.688 2.585V19.5h-5.423v-7.81h5.324v1.331h-3.806v1.881h3.289v1.232h-3.289v2.035h3.905zm6.705-6.479h1.54l2.871 7.81h-1.562l-.726-1.947h-2.728l-.715 1.947h-1.562l2.882-7.81zm1.848 4.796l-1.078-3.223-1.122 3.223h2.2zm5.488-2.002V19.5h-1.518v-7.81h1.21l4.037 5.148v-5.137h1.518V19.5h-1.265l-3.982-5.016zm10.755 5.071c-.572 0-1.093-.11-1.562-.33a3.79 3.79 0 01-1.199-.891 4.353 4.353 0 01-.77-1.276 4.03 4.03 0 01.011-2.948c.198-.477.465-.898.803-1.265a3.771 3.771 0 011.21-.88 3.58 3.58 0 011.54-.33c.564 0 1.078.114 1.54.341a3.7 3.7 0 011.199.913c.33.381.586.807.77 1.276a3.976 3.976 0 01-.011 2.937c-.191.47-.459.891-.803 1.265a3.709 3.709 0 01-1.21.869 3.586 3.586 0 01-1.518.319zm-2.266-3.96c0 .337.051.664.154.979.102.315.249.598.44.847.198.242.436.436.715.583.286.14.608.209.968.209.366 0 .693-.073.979-.22.286-.154.524-.356.715-.605.19-.257.333-.539.429-.847a3.06 3.06 0 00.154-.946c0-.337-.055-.66-.165-.968a2.562 2.562 0 00-.451-.836 1.98 1.98 0 00-.715-.583 2 2 0 00-.946-.22c-.374 0-.704.077-.99.231a2.108 2.108 0 00-.704.594c-.191.25-.338.528-.44.836a3.16 3.16 0 00-.143.946zm9.315-1.111V19.5h-1.518v-7.81h1.21l4.037 5.148v-5.137h1.518V19.5h-1.265l-3.982-5.016zm6.949 1.056a3.979 3.979 0 011.012-2.651c.33-.381.733-.682 1.21-.902.476-.227 1.019-.341 1.628-.341.718 0 1.338.158 1.859.473.528.315.92.726 1.177 1.232l-1.166.803a1.82 1.82 0 00-.517-.693 1.817 1.817 0 00-.682-.363 2.461 2.461 0 00-.715-.11c-.382 0-.715.077-1.001.231a2.229 2.229 0 00-.704.605c-.191.25-.334.528-.429.836a3.35 3.35 0 00-.132.924c0 .345.055.678.165 1.001.11.315.264.598.462.847.205.242.447.436.726.583.286.14.597.209.935.209.242 0 .487-.04.737-.121.249-.08.48-.209.693-.385a1.76 1.76 0 00.495-.682l1.243.715a2.312 2.312 0 01-.759.99 3.713 3.713 0 01-1.166.616c-.433.14-.862.209-1.287.209a3.414 3.414 0 01-1.529-.341 4.005 4.005 0 01-1.199-.924 4.658 4.658 0 01-.781-1.298 4.088 4.088 0 01-.275-1.463zm13.987 2.629V19.5h-5.423v-7.81h5.324v1.331h-3.806v1.881h3.289v1.232h-3.289v2.035h3.905zm4.486-2.486c0-.74.157-1.481.473-2.222a18.69 18.69 0 011.166-2.288l1.122.473c-.11.176-.246.414-.407.715-.154.3-.308.642-.462 1.023a9.658 9.658 0 00-.374 1.166 5.03 5.03 0 00-.143 1.166c0 .587.124 1.203.374 1.848.256.638.583 1.298.979 1.98l-1.078.539c-.301-.462-.58-.935-.836-1.419a8.16 8.16 0 01-.594-1.485 5.344 5.344 0 01-.22-1.496zm5.338-3.993l2.112 6.006 2.09-6.006h1.595l-2.959 7.81h-1.463l-2.97-7.81h1.595zm7.18 7.81v-7.81h5.247v1.331h-3.729v2.013h3.102v1.232h-3.102V19.5h-1.518zm9.11-3.817c0 .491-.074.99-.22 1.496a8.307 8.307 0 01-.594 1.485 14.8 14.8 0 01-.836 1.419l-1.078-.539c.403-.682.729-1.342.979-1.98.249-.645.374-1.261.374-1.848 0-.374-.052-.763-.154-1.166a7.8 7.8 0 00-.374-1.166 10.688 10.688 0 00-.451-1.023c-.154-.3-.29-.539-.407-.715l1.133-.473c.454.777.839 1.54 1.155 2.288.315.74.473 1.481.473 2.222z" fill="#000"/></g><defs><filter id="a" x="0" y="0" width="213" height="44" filterUnits="userSpaceOnUse" color-interpolation-filters="sRGB"><feFlood flood-opacity="0" result="BackgroundImageFix"/><feColorMatrix in="SourceAlpha" values="0 0 0 0 0 0 0 0 0 0 0 0 0 0 0 0 0 0 127 0" result="hardAlpha"/><feOffset dy="6"/><feGaussianBlur stdDeviation="3"/><feComposite in2="hardAlpha" operator="out"/><feColorMatrix values="0 0 0 0 0 0 0 0 0 0 0 0 0 0 0 0 0 0 0.25 0"/><feBlend in2="BackgroundImageFix" result="effect1_dropShadow_3931_479"/><feBlend in="SourceGraphic" in2="effect1_dropShadow_3931_479" result="shape"/></filter><filter id="b" x="0" y="0" width="213" height="44" filterUnits="userSpaceOnUse" color-interpolation-filters="sRGB"><feFlood flood-opacity="0" result="BackgroundImageFix"/><feColorMatrix in="SourceAlpha" values="0 0 0 0 0 0 0 0 0 0 0 0 0 0 0 0 0 0 127 0" result="hardAlpha"/><feOffset dy="6"/><feGaussianBlur stdDeviation="3"/><feComposite in2="hardAlpha" operator="out"/><feColorMatrix values="0 0 0 0 0 0 0 0 0 0 0 0 0 0 0 0 0 0 0.25 0"/><feBlend in2="BackgroundImageFix" result="effect1_dropShadow_3931_479"/><feBlend in="SourceGraphic" in2="effect1_dropShadow_3931_479" result="shape"/></filter></defs></svg>