<svg width="157" height="44" fill="none" xmlns="http://www.w3.org/2000/svg"><g filter="url(#a)"><rect x="6" width="145" height="32" rx="8" fill="#fff"/><rect x="6.5" y=".5" width="144" height="31" rx="7.5" stroke="#639"/></g><path d="M47.354 16.354a.5.5 0 000-.707l-3.182-3.183a.5.5 0 10-.707.708L46.293 16l-2.828 2.828a.5.5 0 10.707.707l3.182-3.181zM24 16.5h23v-1H24v1z" fill="#1C1514"/><path d="M76.655 13.021h-2.497V19.5h-1.507v-6.479h-2.497V11.69h6.501v1.331zm6.942 5.148V19.5h-5.422v-7.81h5.324v1.331h-3.806v1.881h3.288v1.232h-3.288v2.035h3.904zm1.734 1.331v-7.81h2.838c.85 0 1.562.176 2.134.528a3.269 3.269 0 011.287 1.408c.286.587.429 1.24.429 1.958 0 .792-.158 1.481-.473 2.068a3.34 3.34 0 01-1.342 1.364c-.572.323-1.25.484-2.035.484h-2.838zm5.159-3.916c0-.506-.092-.95-.275-1.331a2.067 2.067 0 00-.792-.902c-.345-.22-.763-.33-1.254-.33h-1.32v5.148h1.32c.499 0 .92-.11 1.265-.33.345-.227.605-.535.781-.924.183-.396.275-.84.275-1.331zm11.976-2.563h-2.497V19.5h-1.507v-6.479h-2.497V11.69h6.501v1.331zm2.912-1.331h1.54l2.871 7.81h-1.562l-.726-1.947h-2.728l-.715 1.947h-1.562l2.882-7.81zm1.848 4.796l-1.078-3.223-1.122 3.223h2.2zm3.97 3.014v-7.81h1.518v6.479h3.982V19.5h-5.5zm6.974 0v-7.799h1.518v3.707l3.278-3.718h1.672l-2.992 3.465 3.179 4.345h-1.716l-2.431-3.366-.99 1.034V19.5h-1.518zm12.561-5.764a1.761 1.761 0 00-.286-.209 2.81 2.81 0 00-.495-.253c-.19-.08-.399-.15-.627-.209a2.47 2.47 0 00-.693-.099c-.41 0-.722.077-.935.231-.205.154-.308.37-.308.649 0 .213.066.381.198.506s.33.231.594.319c.264.088.594.183.99.286a6.53 6.53 0 011.331.462c.382.176.671.41.869.704.206.286.308.667.308 1.144 0 .418-.077.777-.231 1.078a1.928 1.928 0 01-.638.715 2.924 2.924 0 01-.924.407c-.344.08-.711.121-1.1.121-.388 0-.777-.04-1.166-.121a6.443 6.443 0 01-1.122-.341 5.393 5.393 0 01-.99-.55l.671-1.309c.066.066.184.154.352.264.169.103.374.209.616.319.242.103.506.19.792.264.286.073.576.11.869.11.411 0 .723-.07.935-.209a.669.669 0 00.319-.594.658.658 0 00-.253-.55c-.168-.132-.403-.246-.704-.341-.3-.103-.656-.213-1.067-.33a6.837 6.837 0 01-1.232-.462c-.33-.176-.575-.396-.737-.66-.161-.264-.242-.594-.242-.99 0-.535.125-.983.374-1.342a2.357 2.357 0 011.034-.825c.433-.19.913-.286 1.441-.286.367 0 .712.04 1.034.121.33.08.638.187.924.319.286.132.543.275.77.429l-.671 1.232z" fill="#000"/><defs><filter id="a" x="0" y="0" width="157" height="44" filterUnits="userSpaceOnUse" color-interpolation-filters="sRGB"><feFlood flood-opacity="0" result="BackgroundImageFix"/><feColorMatrix in="SourceAlpha" values="0 0 0 0 0 0 0 0 0 0 0 0 0 0 0 0 0 0 127 0" result="hardAlpha"/><feOffset dy="6"/><feGaussianBlur stdDeviation="3"/><feComposite in2="hardAlpha" operator="out"/><feColorMatrix values="0 0 0 0 0 0 0 0 0 0 0 0 0 0 0 0 0 0 0.25 0"/><feBlend in2="BackgroundImageFix" result="effect1_dropShadow_3947_515"/><feBlend in="SourceGraphic" in2="effect1_dropShadow_3947_515" result="shape"/></filter></defs></svg>