<svg width="282" height="44" fill="none" xmlns="http://www.w3.org/2000/svg"><g filter="url(#a)"><rect x="6" width="270" height="32" rx="8" fill="#fff"/><rect x="6.5" y=".5" width="269" height="31" rx="7.5" stroke="#639"/></g><path d="M47.354 16.354a.5.5 0 000-.708l-3.182-3.182a.5.5 0 00-.707.707L46.293 16l-2.828 2.828a.5.5 0 10.707.707l3.182-3.181zM24 16.5h23v-1H24v1z" fill="#1C1514"/><path d="M75.467 13.736a1.809 1.809 0 00-.286-.209 2.81 2.81 0 00-.495-.253c-.19-.08-.4-.15-.627-.209a2.473 2.473 0 00-.693-.099c-.41 0-.722.077-.935.231-.205.154-.308.37-.308.649 0 .213.066.381.198.506s.33.231.594.319c.264.088.594.183.99.286.513.125.957.279 1.331.462.381.176.671.41.869.704.205.286.308.667.308 1.144 0 .418-.077.777-.231 1.078a1.934 1.934 0 01-.638.715 2.93 2.93 0 01-.924.407c-.345.08-.711.121-1.1.121-.389 0-.777-.04-1.166-.121a6.407 6.407 0 01-1.122-.341 5.373 5.373 0 01-.99-.55l.671-1.309c.066.066.183.154.352.264.169.103.374.209.616.319.242.103.506.19.792.264.286.073.576.11.869.11.41 0 .722-.07.935-.209a.67.67 0 00.319-.594.66.66 0 00-.253-.55c-.169-.132-.403-.246-.704-.341-.3-.103-.656-.213-1.067-.33a6.829 6.829 0 01-1.232-.462c-.33-.176-.576-.396-.737-.66-.161-.264-.242-.594-.242-.99 0-.535.125-.983.374-1.342a2.351 2.351 0 011.034-.825c.433-.19.913-.286 1.441-.286.367 0 .711.04 1.034.121.33.08.638.187.924.319.286.132.543.275.77.429l-.671 1.232zm8.066 4.433V19.5H78.11v-7.81h5.324v1.331h-3.806v1.881h3.29v1.232h-3.29v2.035h3.905zm7.156 0V19.5h-5.422v-7.81h5.324v1.331h-3.806v1.881h3.288v1.232h-3.288v2.035h3.904zm11.296 1.331v-5.126l-2.002 3.817h-.847l-2.002-3.817V19.5h-1.518v-7.81h1.628l2.31 4.444 2.332-4.444h1.617v7.81h-1.518zm7.031.055c-.572 0-1.093-.11-1.562-.33a3.79 3.79 0 01-1.199-.891 4.353 4.353 0 01-.77-1.276 4.05 4.05 0 01-.275-1.463c0-.52.095-1.016.286-1.485.198-.477.466-.898.803-1.265a3.782 3.782 0 011.21-.88c.469-.22.983-.33 1.54-.33a3.44 3.44 0 011.54.341 3.7 3.7 0 011.199.913c.33.381.587.807.77 1.276.183.47.275.953.275 1.452 0 .513-.095 1.008-.286 1.485-.191.47-.458.891-.803 1.265a3.698 3.698 0 01-2.728 1.188zm-2.266-3.96c0 .337.051.664.154.979.103.315.249.598.44.847.198.242.436.436.715.583.286.14.609.209.968.209.367 0 .693-.073.979-.22.286-.154.524-.356.715-.605.191-.257.334-.539.429-.847a3.03 3.03 0 00.154-.946c0-.337-.055-.66-.165-.968a2.562 2.562 0 00-.451-.836 1.98 1.98 0 00-.715-.583 2 2 0 00-.946-.22c-.374 0-.704.077-.99.231a2.118 2.118 0 00-.704.594c-.191.25-.337.528-.44.836a3.192 3.192 0 00-.143.946zm7.798 3.905v-7.81h3.454c.359 0 .689.073.99.22.308.147.572.345.792.594.227.25.399.528.517.836.124.308.187.623.187.946 0 .33-.059.649-.176.957-.11.3-.272.565-.484.792a2.243 2.243 0 01-.748.528l1.782 2.937h-1.672l-1.606-2.618h-1.518V19.5h-1.518zm1.518-3.949h1.903c.19 0 .359-.055.506-.165.146-.117.264-.271.352-.462.088-.19.132-.403.132-.638a1.314 1.314 0 00-.55-1.1.853.853 0 00-.506-.165h-1.837v2.53zm11.77 2.618V19.5h-5.423v-7.81h5.324v1.331h-3.806v1.881h3.289v1.232h-3.289v2.035h3.905zm4.871-2.783v-1.584h1.199v1.584h-1.199zm0 4.114v-1.584h1.199V19.5h-1.199zm12.034-6.479h-2.497V19.5h-1.507v-6.479h-2.497V11.69h6.501v1.331zm8.087-1.331v7.81h-1.507v-3.333h-3.542V19.5h-1.518v-7.81h1.518v3.157h3.542V11.69h1.507zm7.602 6.479V19.5h-5.423v-7.81h5.324v1.331h-3.806v1.881h3.289v1.232h-3.289v2.035h3.905zm11.295 1.331v-5.126l-2.002 3.817h-.847l-2.002-3.817V19.5h-1.518v-7.81h1.628l2.31 4.444 2.332-4.444h1.617v7.81h-1.518zm7.032.055c-.572 0-1.093-.11-1.562-.33a3.79 3.79 0 01-1.199-.891 4.353 4.353 0 01-.77-1.276 4.03 4.03 0 01.011-2.948c.198-.477.465-.898.803-1.265a3.771 3.771 0 011.21-.88 3.58 3.58 0 011.54-.33c.564 0 1.078.114 1.54.341a3.7 3.7 0 011.199.913c.33.381.586.807.77 1.276a3.976 3.976 0 01-.011 2.937c-.191.47-.459.891-.803 1.265a3.709 3.709 0 01-1.21.869 3.586 3.586 0 01-1.518.319zm-2.266-3.96c0 .337.051.664.154.979.102.315.249.598.44.847.198.242.436.436.715.583.286.14.608.209.968.209.366 0 .693-.073.979-.22.286-.154.524-.356.715-.605.19-.257.333-.539.429-.847a3.06 3.06 0 00.154-.946c0-.337-.055-.66-.165-.968a2.562 2.562 0 00-.451-.836 1.98 1.98 0 00-.715-.583 2 2 0 00-.946-.22c-.374 0-.704.077-.99.231a2.108 2.108 0 00-.704.594c-.191.25-.338.528-.44.836a3.16 3.16 0 00-.143.946zm8.299-3.905l2.112 6.006 2.09-6.006h1.595l-2.959 7.81h-1.463l-2.97-7.81h1.595zm7.181 7.81v-7.81h1.518v7.81h-1.518zm9.12-1.331V19.5h-5.423v-7.81h5.324v1.331h-3.806v1.881h3.289v1.232h-3.289v2.035h3.905zm8.171 1.386c-.506 0-.986-.103-1.441-.308a3.878 3.878 0 01-1.188-.847 4.078 4.078 0 01-.792-1.276 4.267 4.267 0 01-.286-1.573 3.978 3.978 0 011.089-2.761c.345-.36.748-.642 1.21-.847a3.671 3.671 0 011.507-.308c.734 0 1.361.158 1.881.473.528.308.924.719 1.188 1.232l-1.133.836a2.088 2.088 0 00-.836-.891 2.252 2.252 0 00-1.155-.308c-.33 0-.63.07-.902.209-.271.14-.506.33-.704.572-.198.242-.352.52-.462.836a3.233 3.233 0 00-.154 1.001c0 .374.055.719.165 1.034.118.315.279.59.484.825.213.235.459.422.737.561a2.25 2.25 0 002.057-.11c.367-.205.708-.506 1.023-.902v1.496c-.652.704-1.415 1.056-2.288 1.056zm2.178-2.959h-1.573v-1.111h2.827V19.5h-1.254v-2.904zm5.221-4.906h1.54l2.871 7.81h-1.562l-.726-1.947h-2.728l-.715 1.947h-1.562l2.882-7.81zm1.848 4.796l-1.078-3.223-1.122 3.223h2.2zm3.97 3.014v-7.81h1.518v6.479h3.982V19.5h-5.5zm6.973 0v-7.81h1.518v6.479h3.982V19.5h-5.5zm12.397-1.331V19.5h-5.423v-7.81h5.324v1.331h-3.806v1.881h3.289v1.232h-3.289v2.035h3.905zm1.734 1.331v-7.81h3.454c.359 0 .689.073.99.22.308.147.572.345.792.594.227.25.399.528.517.836.124.308.187.623.187.946 0 .33-.059.649-.176.957-.11.3-.272.565-.484.792a2.243 2.243 0 01-.748.528l1.782 2.937h-1.672l-1.606-2.618h-1.518V19.5h-1.518zm1.518-3.949h1.903c.19 0 .359-.055.506-.165.146-.117.264-.271.352-.462.088-.19.132-.403.132-.638a1.314 1.314 0 00-.55-1.1.853.853 0 00-.506-.165h-1.837v2.53zm6.83-3.861l1.925 3.674 1.958-3.674h1.639l-2.838 5.082V19.5h-1.507v-2.75l-2.827-5.06h1.65z" fill="#000"/><defs><filter id="a" x="0" y="0" width="282" height="44" filterUnits="userSpaceOnUse" color-interpolation-filters="sRGB"><feFlood flood-opacity="0" result="BackgroundImageFix"/><feColorMatrix in="SourceAlpha" values="0 0 0 0 0 0 0 0 0 0 0 0 0 0 0 0 0 0 127 0" result="hardAlpha"/><feOffset dy="6"/><feGaussianBlur stdDeviation="3"/><feComposite in2="hardAlpha" operator="out"/><feColorMatrix values="0 0 0 0 0 0 0 0 0 0 0 0 0 0 0 0 0 0 0.25 0"/><feBlend in2="BackgroundImageFix" result="effect1_dropShadow_4736_924"/><feBlend in="SourceGraphic" in2="effect1_dropShadow_4736_924" result="shape"/></filter></defs></svg>