<svg width="293" height="44" fill="none" xmlns="http://www.w3.org/2000/svg"><g filter="url(#a)"><rect x="6" width="281" height="32" rx="8" fill="#fff"/><rect x="6.5" y=".5" width="280" height="31" rx="7.5" stroke="#639"/></g><path d="M47.354 16.354a.5.5 0 000-.707l-3.182-3.182a.5.5 0 10-.707.707L46.293 16l-2.828 2.828a.5.5 0 10.707.708l3.182-3.182zM24 16.5h23v-1H24v1z" fill="#1C1514"/><path d="M71.617 11.69l2.112 6.006 2.09-6.006h1.595l-2.959 7.81h-1.463l-2.97-7.81h1.595zm10.213 7.865c-.572 0-1.093-.11-1.562-.33a3.794 3.794 0 01-1.2-.891 4.36 4.36 0 01-.77-1.276 4.044 4.044 0 01-.274-1.463c0-.52.095-1.016.286-1.485.198-.477.465-.898.803-1.265a3.779 3.779 0 011.21-.88c.47-.22.983-.33 1.54-.33a3.44 3.44 0 011.54.341c.47.227.869.532 1.199.913.33.381.587.807.77 1.276.183.47.275.953.275 1.452 0 .513-.096 1.008-.286 1.485-.19.47-.459.891-.803 1.265a3.698 3.698 0 01-2.728 1.188zm-2.266-3.96c0 .337.051.664.154.979.102.315.25.598.44.847.198.242.436.436.715.583.286.14.608.209.968.209.367 0 .693-.073.979-.22.286-.154.524-.356.715-.605.19-.257.334-.539.429-.847a3.04 3.04 0 00.154-.946c0-.337-.055-.66-.165-.968a2.556 2.556 0 00-.451-.836 1.977 1.977 0 00-.715-.583 2 2 0 00-.946-.22c-.374 0-.704.077-.99.231a2.118 2.118 0 00-.704.594c-.19.25-.338.528-.44.836a3.182 3.182 0 00-.143.946zM87.36 19.5v-7.81h1.518v7.81h-1.518zm3.698 0v-7.81h3.454c.36 0 .69.073.99.22.308.147.572.345.792.594.227.25.4.528.517.836a2.5 2.5 0 01.187.946c0 .33-.059.649-.176.957-.11.3-.272.565-.484.792a2.239 2.239 0 01-.748.528l1.782 2.937H95.7l-1.606-2.618h-1.518V19.5h-1.518zm1.518-3.949h1.903a.82.82 0 00.506-.165 1.25 1.25 0 00.352-.462c.088-.19.132-.403.132-.638 0-.25-.052-.466-.154-.649a1.25 1.25 0 00-.396-.451.852.852 0 00-.506-.165h-1.837v2.53zm11.319-3.861h1.54l2.871 7.81h-1.562l-.726-1.947h-2.728l-.715 1.947h-1.562l2.882-7.81zm1.848 4.796l-1.078-3.223-1.122 3.223h2.2zm6.969 3.069c-.623 0-1.155-.103-1.595-.308a2.851 2.851 0 01-1.056-.869 3.808 3.808 0 01-.583-1.243 5.66 5.66 0 01-.187-1.463V11.69h1.518v3.982c0 .323.029.638.088.946.066.3.172.572.319.814.147.242.341.433.583.572.242.14.543.209.902.209.367 0 .671-.07.913-.209.249-.147.444-.341.583-.583.147-.242.253-.513.319-.814a4.45 4.45 0 00.099-.935V11.69h1.507v3.982c0 .535-.066 1.038-.198 1.507-.125.47-.326.884-.605 1.243-.271.352-.623.63-1.056.836-.433.198-.95.297-1.551.297zm10.142-5.819a1.809 1.809 0 00-.286-.209 2.81 2.81 0 00-.495-.253c-.191-.08-.4-.15-.627-.209a2.47 2.47 0 00-.693-.099c-.411 0-.722.077-.935.231-.205.154-.308.37-.308.649 0 .213.066.381.198.506s.33.231.594.319c.264.088.594.183.99.286a6.55 6.55 0 011.331.462c.381.176.671.41.869.704.205.286.308.667.308 1.144 0 .418-.077.777-.231 1.078a1.937 1.937 0 01-.638.715 2.924 2.924 0 01-.924.407c-.345.08-.711.121-1.1.121-.389 0-.777-.04-1.166-.121a6.391 6.391 0 01-1.122-.341 5.393 5.393 0 01-.99-.55l.671-1.309c.066.066.183.154.352.264.169.103.374.209.616.319.242.103.506.19.792.264.286.073.576.11.869.11.411 0 .722-.07.935-.209a.669.669 0 00.319-.594.658.658 0 00-.253-.55c-.169-.132-.403-.246-.704-.341a22.293 22.293 0 00-1.067-.33 6.837 6.837 0 01-1.232-.462c-.33-.176-.576-.396-.737-.66-.161-.264-.242-.594-.242-.99 0-.535.125-.983.374-1.342a2.351 2.351 0 011.034-.825c.433-.19.913-.286 1.441-.286.367 0 .711.04 1.034.121.33.08.638.187.924.319.286.132.543.275.77.429l-.671 1.232zm7.296 0a1.761 1.761 0 00-.286-.209 2.81 2.81 0 00-.495-.253c-.19-.08-.399-.15-.627-.209a2.47 2.47 0 00-.693-.099c-.41 0-.722.077-.935.231-.205.154-.308.37-.308.649 0 .213.066.381.198.506s.33.231.594.319c.264.088.594.183.99.286a6.53 6.53 0 011.331.462c.382.176.671.41.869.704.206.286.308.667.308 1.144 0 .418-.077.777-.231 1.078a1.928 1.928 0 01-.638.715 2.924 2.924 0 01-.924.407c-.344.08-.711.121-1.1.121-.388 0-.777-.04-1.166-.121a6.443 6.443 0 01-1.122-.341 5.393 5.393 0 01-.99-.55l.671-1.309c.066.066.184.154.352.264.169.103.374.209.616.319.242.103.506.19.792.264.286.073.576.11.869.11.411 0 .723-.07.935-.209a.669.669 0 00.319-.594.658.658 0 00-.253-.55c-.168-.132-.403-.246-.704-.341-.3-.103-.656-.213-1.067-.33a6.837 6.837 0 01-1.232-.462c-.33-.176-.575-.396-.737-.66-.161-.264-.242-.594-.242-.99 0-.535.125-.983.374-1.342a2.357 2.357 0 011.034-.825c.433-.19.913-.286 1.441-.286.367 0 .712.04 1.034.121.33.08.638.187.924.319.286.132.543.275.77.429l-.671 1.232zm2.643 5.764v-7.81h1.518v7.81h-1.518zm6.835-4.114v-1.584h1.199v1.584h-1.199zm0 4.114v-1.584h1.199V19.5h-1.199zm6.516 0v-7.81h1.518v6.479h3.982V19.5h-5.5zm9.096-7.81h1.54l2.871 7.81h-1.562l-.726-1.947h-2.728l-.715 1.947h-1.562l2.882-7.81zm1.848 4.796l-1.078-3.223-1.122 3.223h2.2zm10.064 3.069c-.506 0-.986-.103-1.441-.308a3.878 3.878 0 01-1.188-.847 4.078 4.078 0 01-.792-1.276 4.247 4.247 0 01-.286-1.573c0-.535.095-1.038.286-1.507.191-.477.458-.895.803-1.254.345-.36.748-.642 1.21-.847a3.668 3.668 0 011.507-.308c.733 0 1.36.158 1.881.473.528.308.924.719 1.188 1.232l-1.133.836a2.094 2.094 0 00-.836-.891 2.252 2.252 0 00-1.155-.308c-.33 0-.631.07-.902.209-.271.14-.506.33-.704.572-.198.242-.352.52-.462.836a3.203 3.203 0 00-.154 1.001c0 .374.055.719.165 1.034.117.315.279.59.484.825.213.235.458.422.737.561a2.25 2.25 0 002.057-.11c.367-.205.708-.506 1.023-.902v1.496c-.653.704-1.415 1.056-2.288 1.056zm2.178-2.959h-1.573v-1.111h2.827V19.5h-1.254v-2.904zm5.221-4.906h1.54l2.871 7.81h-1.562l-.726-1.947h-2.728l-.715 1.947h-1.562l2.882-7.81zm1.848 4.796l-1.078-3.223-1.122 3.223h2.2zm3.969 3.014v-7.81h1.518v6.479h3.982V19.5h-5.5zm12.397-1.331V19.5h-5.423v-7.81h5.324v1.331h-3.806v1.881h3.289v1.232h-3.289v2.035h3.905zM194.5 19.5v-7.81h3.454c.359 0 .689.073.99.22.308.147.572.345.792.594.227.25.399.528.517.836.124.308.187.623.187.946 0 .33-.059.649-.176.957-.11.3-.272.565-.484.792a2.243 2.243 0 01-.748.528l1.782 2.937h-1.672l-1.606-2.618h-1.518V19.5H194.5zm1.518-3.949h1.903c.19 0 .359-.055.506-.165.146-.117.264-.271.352-.462.088-.19.132-.403.132-.638a1.314 1.314 0 00-.55-1.1.853.853 0 00-.506-.165h-1.837v2.53zm6.347 3.949v-7.81h1.518v7.81h-1.518zm9.12-1.331V19.5h-5.423v-7.81h5.324v1.331h-3.806v1.881h3.289v1.232h-3.289v2.035h3.905zm4.926 1.331v-7.81h2.838c.851 0 1.562.176 2.134.528a3.269 3.269 0 011.287 1.408c.286.587.429 1.24.429 1.958 0 .792-.157 1.481-.473 2.068a3.333 3.333 0 01-1.342 1.364c-.572.323-1.25.484-2.035.484h-2.838zm5.159-3.916c0-.506-.091-.95-.275-1.331a2.063 2.063 0 00-.792-.902c-.344-.22-.762-.33-1.254-.33h-1.32v5.148h1.32c.499 0 .921-.11 1.265-.33.345-.227.605-.535.781-.924.184-.396.275-.84.275-1.331zm8.688 2.585V19.5h-5.423v-7.81h5.324v1.331h-3.806v1.881h3.289v1.232h-3.289v2.035h3.905zm4.927 1.331v-7.81h5.247v1.331h-3.729v2.013h3.102v1.232h-3.102V19.5h-1.518zm6.866 0v-7.81h1.518v7.81h-1.518zm3.697 0v-7.81h1.518v6.479h3.982V19.5h-5.5zm13.343 0v-5.126l-2.002 3.817h-.847l-2.002-3.817V19.5h-1.518v-7.81h1.628l2.31 4.444 2.332-4.444h1.617v7.81h-1.518zm8.352-5.764a1.859 1.859 0 00-.286-.209 2.81 2.81 0 00-.495-.253c-.191-.08-.4-.15-.627-.209a2.48 2.48 0 00-.693-.099c-.411 0-.723.077-.935.231-.206.154-.308.37-.308.649 0 .213.066.381.198.506s.33.231.594.319c.264.088.594.183.99.286a6.55 6.55 0 011.331.462c.381.176.671.41.869.704.205.286.308.667.308 1.144 0 .418-.077.777-.231 1.078a1.937 1.937 0 01-.638.715c-.272.183-.58.319-.924.407a4.82 4.82 0 01-1.1.121c-.389 0-.778-.04-1.166-.121a6.391 6.391 0 01-1.122-.341 5.328 5.328 0 01-.99-.55l.671-1.309c.066.066.183.154.352.264.168.103.374.209.616.319.242.103.506.19.792.264.286.073.575.11.869.11.41 0 .722-.07.935-.209a.67.67 0 00.319-.594.661.661 0 00-.253-.55c-.169-.132-.404-.246-.704-.341a22.656 22.656 0 00-1.067-.33 6.808 6.808 0 01-1.232-.462c-.33-.176-.576-.396-.737-.66-.162-.264-.242-.594-.242-.99 0-.535.124-.983.374-1.342a2.346 2.346 0 011.034-.825c.432-.19.913-.286 1.441-.286.366 0 .711.04 1.034.121.33.08.638.187.924.319.286.132.542.275.77.429l-.671 1.232z" fill="#000"/><defs><filter id="a" x="0" y="0" width="293" height="44" filterUnits="userSpaceOnUse" color-interpolation-filters="sRGB"><feFlood flood-opacity="0" result="BackgroundImageFix"/><feColorMatrix in="SourceAlpha" values="0 0 0 0 0 0 0 0 0 0 0 0 0 0 0 0 0 0 127 0" result="hardAlpha"/><feOffset dy="6"/><feGaussianBlur stdDeviation="3"/><feComposite in2="hardAlpha" operator="out"/><feColorMatrix values="0 0 0 0 0 0 0 0 0 0 0 0 0 0 0 0 0 0 0.25 0"/><feBlend in2="BackgroundImageFix" result="effect1_dropShadow_4176_816"/><feBlend in="SourceGraphic" in2="effect1_dropShadow_4176_816" result="shape"/></filter></defs></svg>