<svg width="212" height="44" fill="none" xmlns="http://www.w3.org/2000/svg"><g filter="url(#a)"><rect x="6" width="200" height="32" rx="8" fill="#fff"/><rect x="6.5" y=".5" width="199" height="31" rx="7.5" stroke="#639"/></g><path d="M47.354 16.354a.5.5 0 000-.707l-3.182-3.183a.5.5 0 10-.707.708L46.293 16l-2.828 2.828a.5.5 0 10.707.707l3.182-3.181zM24 16.5h23v-1H24v1z" fill="#1C1514"/><path d="M71.617 11.69l2.112 6.006 2.09-6.006h1.595l-2.959 7.81h-1.463l-2.97-7.81h1.595zm7.18 7.81v-7.81h1.519v7.81h-1.518zm3.698 0v-7.81h3.454c.36 0 .69.073.99.22.308.147.572.345.792.594.227.25.4.528.517.836.125.308.187.623.187.946 0 .33-.059.649-.176.957-.11.3-.271.565-.484.792a2.24 2.24 0 01-.748.528L88.81 19.5h-1.672l-1.606-2.618h-1.518V19.5h-1.518zm1.518-3.949h1.903c.19 0 .36-.055.506-.165a1.25 1.25 0 00.352-.462c.088-.19.132-.403.132-.638 0-.25-.051-.466-.154-.649a1.252 1.252 0 00-.396-.451.852.852 0 00-.506-.165h-1.837v2.53zm12.102-2.53H93.62V19.5h-1.507v-6.479h-2.497V11.69h6.5v1.331zm4.831 6.534c-.623 0-1.155-.103-1.595-.308a2.856 2.856 0 01-1.056-.869 3.802 3.802 0 01-.583-1.243 5.673 5.673 0 01-.187-1.463V11.69h1.518v3.982c0 .323.03.638.088.946.066.3.172.572.32.814.146.242.34.433.582.572.242.14.543.209.902.209.367 0 .671-.07.913-.209.249-.147.444-.341.583-.583.147-.242.253-.513.319-.814a4.45 4.45 0 00.099-.935V11.69h1.507v3.982c0 .535-.066 1.038-.198 1.507-.125.47-.326.884-.605 1.243-.271.352-.623.63-1.056.836-.433.198-.95.297-1.551.297zm7.301-7.865h1.54l2.871 7.81h-1.562l-.726-1.947h-2.728l-.715 1.947h-1.562l2.882-7.81zm1.848 4.796l-1.078-3.223-1.122 3.223h2.2zm3.969 3.014v-7.81h1.518v6.479h3.982V19.5h-5.5zm15.257-1.331V19.5h-5.423v-7.81h5.324v1.331h-3.806v1.881h3.289v1.232h-3.289v2.035h3.905zm2.547-6.479l1.936 2.882 1.925-2.882h1.65l-2.706 3.96 2.618 3.85h-1.65l-1.837-2.772-1.848 2.772h-1.661l2.618-3.85-2.706-3.96h1.661zm6.847 7.81v-7.81h1.518v7.81h-1.518zm8.351-5.764a1.859 1.859 0 00-.286-.209 2.81 2.81 0 00-.495-.253c-.191-.08-.4-.15-.627-.209a2.48 2.48 0 00-.693-.099c-.411 0-.723.077-.935.231-.206.154-.308.37-.308.649 0 .213.066.381.198.506s.33.231.594.319c.264.088.594.183.99.286a6.55 6.55 0 011.331.462c.381.176.671.41.869.704.205.286.308.667.308 1.144 0 .418-.077.777-.231 1.078a1.937 1.937 0 01-.638.715c-.272.183-.58.319-.924.407a4.82 4.82 0 01-1.1.121c-.389 0-.778-.04-1.166-.121a6.391 6.391 0 01-1.122-.341 5.328 5.328 0 01-.99-.55l.671-1.309c.066.066.183.154.352.264.168.103.374.209.616.319.242.103.506.19.792.264.286.073.575.11.869.11.41 0 .722-.07.935-.209a.67.67 0 00.319-.594.661.661 0 00-.253-.55c-.169-.132-.404-.246-.704-.341a22.656 22.656 0 00-1.067-.33 6.808 6.808 0 01-1.232-.462c-.33-.176-.576-.396-.737-.66-.162-.264-.242-.594-.242-.99 0-.535.124-.983.374-1.342a2.346 2.346 0 011.034-.825c.432-.19.913-.286 1.441-.286.366 0 .711.04 1.034.121.33.08.638.187.924.319.286.132.542.275.77.429l-.671 1.232zm8.484-.715h-2.497V19.5h-1.507v-6.479h-2.497V11.69h6.501v1.331zm6.942 5.148V19.5h-5.423v-7.81h5.324v1.331h-3.806v1.881h3.289v1.232h-3.289v2.035h3.905zm3.252-3.685V19.5h-1.518v-7.81h1.21l4.037 5.148v-5.137h1.518V19.5h-1.265l-3.982-5.016zm6.949 1.056a3.979 3.979 0 011.012-2.651c.33-.381.733-.682 1.21-.902.476-.227 1.019-.341 1.628-.341.718 0 1.338.158 1.859.473.528.315.92.726 1.177 1.232l-1.166.803a1.82 1.82 0 00-.517-.693 1.817 1.817 0 00-.682-.363 2.461 2.461 0 00-.715-.11c-.382 0-.715.077-1.001.231a2.229 2.229 0 00-.704.605c-.191.25-.334.528-.429.836a3.35 3.35 0 00-.132.924c0 .345.055.678.165 1.001.11.315.264.598.462.847.205.242.447.436.726.583.286.14.597.209.935.209.242 0 .487-.04.737-.121.249-.08.48-.209.693-.385a1.76 1.76 0 00.495-.682l1.243.715a2.312 2.312 0 01-.759.99 3.713 3.713 0 01-1.166.616c-.433.14-.862.209-1.287.209a3.414 3.414 0 01-1.529-.341 4.005 4.005 0 01-1.199-.924 4.658 4.658 0 01-.781-1.298 4.088 4.088 0 01-.275-1.463zm13.987 2.629V19.5h-5.423v-7.81h5.324v1.331h-3.806v1.881h3.289v1.232h-3.289v2.035h3.905z" fill="#000"/><defs><filter id="a" x="0" y="0" width="212" height="44" filterUnits="userSpaceOnUse" color-interpolation-filters="sRGB"><feFlood flood-opacity="0" result="BackgroundImageFix"/><feColorMatrix in="SourceAlpha" values="0 0 0 0 0 0 0 0 0 0 0 0 0 0 0 0 0 0 127 0" result="hardAlpha"/><feOffset dy="6"/><feGaussianBlur stdDeviation="3"/><feComposite in2="hardAlpha" operator="out"/><feColorMatrix values="0 0 0 0 0 0 0 0 0 0 0 0 0 0 0 0 0 0 0.25 0"/><feBlend in2="BackgroundImageFix" result="effect1_dropShadow_3976_423"/><feBlend in="SourceGraphic" in2="effect1_dropShadow_3976_423" result="shape"/></filter></defs></svg>