<svg width="222" height="44" fill="none" xmlns="http://www.w3.org/2000/svg"><g filter="url(#a)"><rect x="6" width="210" height="32" rx="8" fill="#fff"/><rect x="6.5" y=".5" width="209" height="31" rx="7.5" stroke="#639"/></g><path d="M47.354 16.354a.5.5 0 000-.708l-3.182-3.182a.5.5 0 00-.707.707L46.293 16l-2.828 2.828a.5.5 0 10.707.707l3.182-3.181zM24 16.5h23v-1H24v1z" fill="#1C1514"/><path d="M70.814 19.5v-7.81h1.518v6.479h3.982V19.5h-5.5zm6.974 0v-7.81h1.518v7.81h-1.518zm8.35-5.764a1.809 1.809 0 00-.286-.209 2.81 2.81 0 00-.495-.253c-.19-.08-.4-.15-.627-.209a2.473 2.473 0 00-.693-.099c-.41 0-.722.077-.935.231-.205.154-.308.37-.308.649 0 .213.066.381.198.506s.33.231.594.319c.264.088.594.183.99.286.514.125.957.279 1.331.462.382.176.671.41.87.704.205.286.307.667.307 1.144 0 .418-.077.777-.23 1.078a1.934 1.934 0 01-.639.715 2.93 2.93 0 01-.924.407c-.344.08-.711.121-1.1.121-.388 0-.777-.04-1.166-.121a6.407 6.407 0 01-1.122-.341 5.373 5.373 0 01-.99-.55l.671-1.309c.066.066.184.154.352.264.169.103.374.209.616.319.242.103.506.19.792.264.286.073.576.11.87.11.41 0 .722-.07.934-.209a.67.67 0 00.32-.594.66.66 0 00-.254-.55c-.168-.132-.403-.246-.704-.341-.3-.103-.656-.213-1.067-.33a6.829 6.829 0 01-1.232-.462c-.33-.176-.575-.396-.737-.66-.161-.264-.242-.594-.242-.99 0-.535.125-.983.374-1.342a2.351 2.351 0 011.034-.825c.433-.19.913-.286 1.441-.286.367 0 .712.04 1.034.121.33.08.638.187.924.319.286.132.543.275.77.429l-.67 1.232zm8.484-.715h-2.497V19.5h-1.507v-6.479h-2.497V11.69h6.501v1.331zm6.943 5.148V19.5h-5.423v-7.81h5.324v1.331H97.66v1.881h3.289v1.232h-3.29v2.035h3.906zm3.251-3.685V19.5h-1.518v-7.81h1.21l4.037 5.148v-5.137h1.518V19.5h-1.265l-3.982-5.016zm16.133-1.463h-2.497V19.5h-1.507v-6.479h-2.497V11.69h6.501v1.331zm4.681 6.534c-.572 0-1.093-.11-1.562-.33a3.79 3.79 0 01-1.199-.891 4.353 4.353 0 01-.77-1.276 4.05 4.05 0 01-.275-1.463c0-.52.095-1.016.286-1.485.198-.477.466-.898.803-1.265a3.782 3.782 0 011.21-.88c.469-.22.983-.33 1.54-.33a3.44 3.44 0 011.54.341 3.7 3.7 0 011.199.913c.33.381.587.807.77 1.276.183.47.275.953.275 1.452 0 .513-.095 1.008-.286 1.485-.191.47-.458.891-.803 1.265a3.698 3.698 0 01-2.728 1.188zm-2.266-3.96c0 .337.051.664.154.979.103.315.249.598.44.847.198.242.436.436.715.583.286.14.609.209.968.209.367 0 .693-.073.979-.22.286-.154.524-.356.715-.605.191-.257.334-.539.429-.847a3.03 3.03 0 00.154-.946c0-.337-.055-.66-.165-.968a2.562 2.562 0 00-.451-.836 1.98 1.98 0 00-.715-.583 2 2 0 00-.946-.22c-.374 0-.704.077-.99.231a2.118 2.118 0 00-.704.594c-.191.25-.337.528-.44.836a3.192 3.192 0 00-.143.946zm16.509-2.574h-2.497V19.5h-1.507v-6.479h-2.497V11.69h6.501v1.331zm8.086-1.331v7.81h-1.507v-3.333h-3.542V19.5h-1.518v-7.81h1.518v3.157h3.542V11.69h1.507zm7.603 6.479V19.5h-5.423v-7.81h5.324v1.331h-3.806v1.881h3.289v1.232h-3.289v2.035h3.905zm11.295 1.331v-5.126l-2.002 3.817h-.847l-2.002-3.817V19.5h-1.518v-7.81h1.628l2.31 4.444 2.332-4.444h1.617v7.81h-1.518zm7.009.055c-.623 0-1.155-.103-1.595-.308a2.867 2.867 0 01-1.056-.869 3.808 3.808 0 01-.583-1.243 5.704 5.704 0 01-.187-1.463V11.69h1.518v3.982c0 .323.03.638.088.946.066.3.173.572.319.814.147.242.341.433.583.572.242.14.543.209.902.209.367 0 .671-.07.913-.209a1.58 1.58 0 00.583-.583c.147-.242.253-.513.319-.814a4.45 4.45 0 00.099-.935V11.69h1.507v3.982c0 .535-.066 1.038-.198 1.507-.124.47-.326.884-.605 1.243-.271.352-.623.63-1.056.836-.432.198-.949.297-1.551.297zm10.142-5.819a1.761 1.761 0 00-.286-.209 2.81 2.81 0 00-.495-.253c-.19-.08-.399-.15-.627-.209a2.47 2.47 0 00-.693-.099c-.41 0-.722.077-.935.231-.205.154-.308.37-.308.649 0 .213.066.381.198.506s.33.231.594.319c.264.088.594.183.99.286a6.53 6.53 0 011.331.462c.382.176.671.41.869.704.206.286.308.667.308 1.144 0 .418-.077.777-.231 1.078a1.928 1.928 0 01-.638.715 2.924 2.924 0 01-.924.407c-.344.08-.711.121-1.1.121-.388 0-.777-.04-1.166-.121a6.443 6.443 0 01-1.122-.341 5.393 5.393 0 01-.99-.55l.671-1.309c.066.066.184.154.352.264.169.103.374.209.616.319.242.103.506.19.792.264.286.073.576.11.869.11.411 0 .723-.07.935-.209a.669.669 0 00.319-.594.658.658 0 00-.253-.55c-.168-.132-.403-.246-.704-.341-.3-.103-.656-.213-1.067-.33a6.837 6.837 0 01-1.232-.462c-.33-.176-.575-.396-.737-.66-.161-.264-.242-.594-.242-.99 0-.535.125-.983.374-1.342a2.357 2.357 0 011.034-.825c.433-.19.913-.286 1.441-.286.367 0 .712.04 1.034.121.33.08.638.187.924.319.286.132.543.275.77.429l-.671 1.232zm2.643 5.764v-7.81h1.518v7.81h-1.518zm3.225-3.96a3.979 3.979 0 011.012-2.651c.33-.381.733-.682 1.21-.902.476-.227 1.019-.341 1.628-.341.718 0 1.338.158 1.859.473.528.315.92.726 1.177 1.232l-1.166.803a1.82 1.82 0 00-.517-.693 1.817 1.817 0 00-.682-.363 2.461 2.461 0 00-.715-.11c-.382 0-.715.077-1.001.231a2.229 2.229 0 00-.704.605c-.191.25-.334.528-.429.836a3.35 3.35 0 00-.132.924c0 .345.055.678.165 1.001.11.315.264.598.462.847.205.242.447.436.726.583.286.14.597.209.935.209.242 0 .487-.04.737-.121.249-.08.48-.209.693-.385a1.76 1.76 0 00.495-.682l1.243.715a2.312 2.312 0 01-.759.99 3.713 3.713 0 01-1.166.616c-.433.14-.862.209-1.287.209a3.414 3.414 0 01-1.529-.341 4.005 4.005 0 01-1.199-.924 4.658 4.658 0 01-.781-1.298 4.088 4.088 0 01-.275-1.463z" fill="#000"/><defs><filter id="a" x="0" y="0" width="222" height="44" filterUnits="userSpaceOnUse" color-interpolation-filters="sRGB"><feFlood flood-opacity="0" result="BackgroundImageFix"/><feColorMatrix in="SourceAlpha" values="0 0 0 0 0 0 0 0 0 0 0 0 0 0 0 0 0 0 127 0" result="hardAlpha"/><feOffset dy="6"/><feGaussianBlur stdDeviation="3"/><feComposite in2="hardAlpha" operator="out"/><feColorMatrix values="0 0 0 0 0 0 0 0 0 0 0 0 0 0 0 0 0 0 0.25 0"/><feBlend in2="BackgroundImageFix" result="effect1_dropShadow_4736_917"/><feBlend in="SourceGraphic" in2="effect1_dropShadow_4736_917" result="shape"/></filter></defs></svg>