<svg width="154" height="44" fill="none" xmlns="http://www.w3.org/2000/svg"><g filter="url(#a)"><rect x="6" width="142" height="32" rx="8" fill="#fff"/><rect x="6.5" y=".5" width="141" height="31" rx="7.5" stroke="#639"/></g><path d="M47.354 16.354a.5.5 0 000-.707l-3.182-3.183a.5.5 0 10-.707.708L46.293 16l-2.828 2.828a.5.5 0 10.707.707l3.182-3.181zM24 16.5h23v-1H24v1z" fill="#1C1514"/><path d="M74.147 19.555c-.572 0-1.093-.11-1.562-.33a3.794 3.794 0 01-1.199-.891 4.36 4.36 0 01-.77-1.276 4.044 4.044 0 01-.275-1.463c0-.52.095-1.016.286-1.485.198-.477.466-.898.803-1.265a3.779 3.779 0 011.21-.88c.47-.22.983-.33 1.54-.33a3.44 3.44 0 011.54.341c.47.227.869.532 1.199.913.33.381.587.807.77 1.276.183.47.275.953.275 1.452 0 .513-.095 1.008-.286 1.485-.19.47-.458.891-.803 1.265a3.698 3.698 0 01-2.728 1.188zm-2.266-3.96c0 .337.051.664.154.979.103.315.25.598.44.847.198.242.436.436.715.583.286.14.609.209.968.209.367 0 .693-.073.979-.22.286-.154.524-.356.715-.605.19-.257.334-.539.429-.847a3.04 3.04 0 00.154-.946c0-.337-.055-.66-.165-.968a2.556 2.556 0 00-.451-.836 1.977 1.977 0 00-.715-.583 2 2 0 00-.946-.22c-.374 0-.704.077-.99.231a2.118 2.118 0 00-.704.594c-.19.25-.337.528-.44.836a3.182 3.182 0 00-.143.946zm7.325-.055c0-.477.084-.942.252-1.397.177-.462.43-.88.76-1.254a3.54 3.54 0 011.21-.902c.476-.227 1.019-.341 1.627-.341.72 0 1.339.158 1.86.473.527.315.92.726 1.176 1.232l-1.165.803a1.814 1.814 0 00-.517-.693 1.814 1.814 0 00-.683-.363 2.458 2.458 0 00-.715-.11 2.08 2.08 0 00-1 .231 2.239 2.239 0 00-.704.605c-.191.25-.334.528-.43.836a3.35 3.35 0 00-.131.924c0 .345.055.678.165 1.001.11.315.263.598.462.847.205.242.447.436.725.583.287.14.598.209.936.209.241 0 .487-.04.736-.121.25-.08.48-.209.694-.385.212-.176.377-.403.495-.682l1.242.715a2.312 2.312 0 01-.758.99 3.703 3.703 0 01-1.166.616c-.433.14-.862.209-1.287.209a3.416 3.416 0 01-1.53-.341 4.01 4.01 0 01-1.198-.924 4.672 4.672 0 01-.781-1.298 4.101 4.101 0 01-.275-1.463zm11.874 4.015c-.623 0-1.154-.103-1.594-.308a2.856 2.856 0 01-1.056-.869 3.8 3.8 0 01-.584-1.243 5.673 5.673 0 01-.187-1.463V11.69h1.518v3.982c0 .323.03.638.088.946.067.3.173.572.32.814.146.242.34.433.583.572.241.14.542.209.901.209.367 0 .671-.07.913-.209.25-.147.444-.341.584-.583.146-.242.252-.513.319-.814a4.45 4.45 0 00.099-.935V11.69h1.507v3.982c0 .535-.067 1.038-.198 1.507a3.45 3.45 0 01-.606 1.243 2.85 2.85 0 01-1.055.836c-.433.198-.95.297-1.552.297zm5.49-.055v-7.81h1.518v6.479h3.981V19.5h-5.5zm9.096-7.81h1.54l2.871 7.81h-1.562l-.726-1.947h-2.728l-.715 1.947h-1.562l2.882-7.81zm1.848 4.796l-1.078-3.223-1.122 3.223h2.2zm3.97 3.014v-7.81h3.454c.359 0 .689.073.99.22.308.147.572.345.792.594.227.25.4.528.517.836.125.308.187.623.187.946 0 .33-.059.649-.176.957a2.3 2.3 0 01-.484.792 2.243 2.243 0 01-.748.528l1.782 2.937h-1.672l-1.606-2.618h-1.518V19.5h-1.518zm1.518-3.949h1.903a.82.82 0 00.506-.165c.147-.117.264-.271.352-.462.088-.19.132-.403.132-.638 0-.25-.051-.466-.154-.649a1.257 1.257 0 00-.396-.451.853.853 0 00-.506-.165h-1.837v2.53zm6.347 3.949v-7.81h1.518v7.81h-1.518zm5.821-7.81h1.54l2.871 7.81h-1.562l-.726-1.947h-2.728l-.715 1.947h-1.562l2.882-7.81zm1.848 4.796l-1.078-3.223-1.122 3.223h2.2z" fill="#000"/><defs><filter id="a" x="0" y="0" width="154" height="44" filterUnits="userSpaceOnUse" color-interpolation-filters="sRGB"><feFlood flood-opacity="0" result="BackgroundImageFix"/><feColorMatrix in="SourceAlpha" values="0 0 0 0 0 0 0 0 0 0 0 0 0 0 0 0 0 0 127 0" result="hardAlpha"/><feOffset dy="6"/><feGaussianBlur stdDeviation="3"/><feComposite in2="hardAlpha" operator="out"/><feColorMatrix values="0 0 0 0 0 0 0 0 0 0 0 0 0 0 0 0 0 0 0.25 0"/><feBlend in2="BackgroundImageFix" result="effect1_dropShadow_4032_535"/><feBlend in="SourceGraphic" in2="effect1_dropShadow_4032_535" result="shape"/></filter></defs></svg>